<?xml version="1.0" encoding="UTF-8" standalone="no"?>
<!-- Created with Inkscape (http://www.inkscape.org/) -->

<svg
   width="1920"
   height="1080"
   viewBox="0 0 1920 1080"
   version="1.1"
   id="svg1"
   inkscape:version="1.3.2 (091e20ef0f, 2023-11-25)"
   sodipodi:docname="taslak.svg"
   xml:space="preserve"
   inkscape:export-filename="taslak.png"
   inkscape:export-xdpi="96"
   inkscape:export-ydpi="96"
   xmlns:inkscape="http://www.inkscape.org/namespaces/inkscape"
   xmlns:sodipodi="http://sodipodi.sourceforge.net/DTD/sodipodi-0.dtd"
   xmlns:xlink="http://www.w3.org/1999/xlink"
   xmlns="http://www.w3.org/2000/svg"
   xmlns:svg="http://www.w3.org/2000/svg"><sodipodi:namedview
     id="namedview1"
     pagecolor="#505050"
     bordercolor="#eeeeee"
     borderopacity="1"
     inkscape:showpageshadow="0"
     inkscape:pageopacity="0"
     inkscape:pagecheckerboard="0"
     inkscape:deskcolor="#505050"
     inkscape:document-units="px"
     inkscape:zoom="0.35755208"
     inkscape:cx="808.27386"
     inkscape:cy="599.91261"
     inkscape:window-width="1920"
     inkscape:window-height="1051"
     inkscape:window-x="0"
     inkscape:window-y="0"
     inkscape:window-maximized="1"
     inkscape:current-layer="svg1"
     inkscape:export-bgcolor="#ffffff00" /><defs
     id="defs1"><rect
       x="707.03843"
       y="133.127"
       width="125.67222"
       height="186.19855"
       id="rect12" /><rect
       x="720.23597"
       y="101.36522"
       width="158.21909"
       height="293.4672"
       id="rect11" /><inkscape:path-effect
       effect="fillet_chamfer"
       id="path-effect3"
       is_visible="true"
       lpeversion="1"
       nodesatellites_param="F,0,0,1,0,15.575898,0,1 @ F,0,0,1,0,14.099331,0,1 @ F,0,0,1,0,18.089378,0,1 @ F,0,0,1,0,14.930923,0,1"
       radius="0"
       unit="px"
       method="auto"
       mode="F"
       chamfer_steps="1"
       flexible="false"
       use_knot_distance="true"
       apply_no_radius="true"
       apply_with_radius="true"
       only_selected="false"
       hide_knots="false" /><radialGradient
       inkscape:collect="always"
       xlink:href="#linearGradient1"
       id="radialGradient2"
       cx="60"
       cy="60"
       fx="60"
       fy="60"
       r="57.77692"
       gradientUnits="userSpaceOnUse"
       gradientTransform="matrix(1.0456597,0,0,1.0456597,1167.6754,510.67542)" /><linearGradient
       id="linearGradient1"
       inkscape:collect="always"><stop
         style="stop-color:#00ffff;stop-opacity:1;"
         offset="0"
         id="stop1" /><stop
         style="stop-color:#00ffff;stop-opacity:0;"
         offset="1"
         id="stop2" /></linearGradient><radialGradient
       inkscape:collect="always"
       xlink:href="#linearGradient2"
       id="radialGradient4"
       cx="60"
       cy="60"
       fx="60"
       fy="60"
       r="48.580868"
       gradientUnits="userSpaceOnUse"
       gradientTransform="translate(1170.415,513.415)" /><linearGradient
       id="linearGradient2"
       inkscape:collect="always"><stop
         style="stop-color:#f9f9f9;stop-opacity:1;"
         offset="0"
         id="stop3" /><stop
         style="stop-color:#f9f9f9;stop-opacity:0.82745098;"
         offset="0.62526572"
         id="stop5" /><stop
         style="stop-color:#f9f9f9;stop-opacity:0;"
         offset="1"
         id="stop4" /></linearGradient><inkscape:path-effect
       effect="fillet_chamfer"
       id="path-effect3-1"
       is_visible="true"
       lpeversion="1"
       nodesatellites_param="F,0,0,1,0,15.575898,0,1 @ F,0,0,1,0,14.099331,0,1 @ F,0,0,1,0,18.089378,0,1 @ F,0,0,1,0,14.930923,0,1"
       radius="0"
       unit="px"
       method="auto"
       mode="F"
       chamfer_steps="1"
       flexible="false"
       use_knot_distance="true"
       apply_no_radius="true"
       apply_with_radius="true"
       only_selected="false"
       hide_knots="false" /><radialGradient
       fx="0"
       fy="0"
       cx="0"
       cy="0"
       r="1"
       gradientUnits="userSpaceOnUse"
       gradientTransform="matrix(345.7207,0,0,345.7207,825.06402,961.50365)"
       spreadMethod="pad"
       id="radialGradient55"><stop
         style="stop-opacity:1;stop-color:#130c0e"
         offset="0"
         id="stop50" /><stop
         style="stop-opacity:1;stop-color:#130c0e"
         offset="0.574443"
         id="stop51" /><stop
         style="stop-opacity:1;stop-color:#130c0e"
         offset="0.61136583"
         id="stop52" /><stop
         style="stop-opacity:1;stop-color:#130c0e"
         offset="0.797713"
         id="stop53" /><stop
         style="stop-opacity:1;stop-color:#130c0e"
         offset="0.9096649"
         id="stop54" /><stop
         style="stop-opacity:1;stop-color:#130c0e"
         offset="1"
         id="stop55" /></radialGradient><radialGradient
       fx="0"
       fy="0"
       cx="0"
       cy="0"
       r="1"
       gradientUnits="userSpaceOnUse"
       gradientTransform="matrix(388.93802,0,0,388.93802,825.06402,635.56635)"
       spreadMethod="pad"
       id="radialGradient61"><stop
         style="stop-opacity:1;stop-color:#130c0e"
         offset="0"
         id="stop56" /><stop
         style="stop-opacity:1;stop-color:#130c0e"
         offset="0.574443"
         id="stop57" /><stop
         style="stop-opacity:1;stop-color:#130c0e"
         offset="0.61136583"
         id="stop58" /><stop
         style="stop-opacity:1;stop-color:#130c0e"
         offset="0.797713"
         id="stop59" /><stop
         style="stop-opacity:1;stop-color:#130c0e"
         offset="0.9096649"
         id="stop60" /><stop
         style="stop-opacity:1;stop-color:#130c0e"
         offset="1"
         id="stop61" /></radialGradient><radialGradient
       fx="0"
       fy="0"
       cx="0"
       cy="0"
       r="1"
       gradientUnits="userSpaceOnUse"
       gradientTransform="matrix(35.495299,0,0,35.495299,390.31425,838.11883)"
       spreadMethod="pad"
       id="radialGradient67"><stop
         style="stop-opacity:1;stop-color:#130c0e"
         offset="0"
         id="stop62" /><stop
         style="stop-opacity:1;stop-color:#130c0e"
         offset="0.574443"
         id="stop63" /><stop
         style="stop-opacity:1;stop-color:#130c0e"
         offset="0.61136583"
         id="stop64" /><stop
         style="stop-opacity:1;stop-color:#130c0e"
         offset="0.797713"
         id="stop65" /><stop
         style="stop-opacity:1;stop-color:#130c0e"
         offset="0.9096649"
         id="stop66" /><stop
         style="stop-opacity:1;stop-color:#130c0e"
         offset="1"
         id="stop67" /></radialGradient><rect
       x="707.03845"
       y="133.127"
       width="125.67222"
       height="186.19855"
       id="rect12-9" /></defs><rect
     style="fill:#000000;fill-opacity:1;stroke:none;stroke-width:121.464;stroke-linecap:round;stroke-linejoin:round;stroke-dasharray:485.857, 121.464;stroke-dashoffset:0;stroke-opacity:1"
     id="rect2"
     width="1920"
     height="1080"
     x="0"
     y="0"
     inkscape:export-filename="./background.png"
     inkscape:export-xdpi="96"
     inkscape:export-ydpi="96" /><path
     id="path0"
     d="m -301.42916,-228.54965 c 2.42368,1.35986 3.28634,14.92777 3.28634,51.50958 v 49.66185 l -7.05195,1.80161 c -25.72934,6.58035 -15.49374,28.864414 13.26177,28.864414 30.50824,0 40.34673,-20.378724 14.03543,-29.087214 l -9.29076,-3.07697 v -50.7605 -50.75664 h -8.76359 c -6.81915,0 -8.031,0.41102 -5.47724,1.84387 m 93.56497,1.1294 c 1.8417,1.92838 2.83446,28.57629 2.83446,75.93329 v 72.963878 l -9.4414,3.272887 c -24.24363,8.405021 -14.06964,29.244711 14.27506,29.244711 24.96938,0 37.18362,-15.169759 20.93675,-26.002556 -3.89568,-2.600639 -8.82519,-4.728785 -10.95448,-4.728785 -3.27265,0 -3.86145,-11.71248 -3.86145,-76.828335 v -76.82836 h -8.31171 c -7.36689,0 -7.98994,0.33804 -5.47723,2.97327 m 131.549601,45.32487 c 0,46.73852 -0.178013,48.32888 -5.408775,49.26233 -23.730146,4.22557 -20.361626,25.99872 4.628269,29.87087 30.337066,4.698054 49.589563,-19.65269 22.614158,-28.59168 l -8.140548,-2.69667 v -48.07149 -48.0715 h -6.846546 -6.846558 v 48.29814 m 140.463828,-23.98964 43.023711,24.30848 v 22.79497 22.79113 l -10.954467,5.67378 c -24.866681,12.88026 -0.575115,35.851941 28.111937,26.59028 20.64918,-6.66486 21.77202,-20.23274 2.32097,-28.00394 l -8.52394,-3.40348 v -24.88471 -24.8847 l -40.428892,-22.64516 c -33.767177,-18.91513 -41.757101,-22.64515 -48.500957,-22.64515 -7.462729,0 -4.826824,1.83235 34.951638,24.3085 m 163.523011,25.62992 88.97093,49.93844 h 63.17309 63.17998 l 6.25773,4.75183 c 18.55417,14.07879 52.2803,8.40117 52.2803,-8.79686 0,-14.55897 -30.35759,-19.60274 -49.61013,-8.24751 l -10.42045,6.14627 h -59.68824 -59.69505 l -83.49368,-46.8653 c -72.40228,-40.64219 -84.58229,-46.86529 -91.70954,-46.86529 -7.47644,0 -0.17116,4.51752 80.75506,49.93842 m 139.64907,-37.26174 c 0,12.47692 -0.14376,12.71893 -8.23637,15.30038 -32.06925,10.2412 -2.25938,37.07735 30.31651,27.29326 13.35078,-4.00659 16.85621,-17.77809 5.97019,-23.4557 -2.61538,-1.36369 -7.61336,-3.94129 -11.10512,-5.73138 -4.91579,-2.5123 -6.25772,-4.71343 -5.90856,-9.67271 0.99277,-14.21708 0.25332,-16.41053 -5.53887,-16.41053 -5.0322,0 -5.47722,1.02951 -5.49778,12.67668 M 517.966,-202.5663 v 27.82724 l 44.50256,25.17664 44.50258,25.17282 -0.93111,7.6713 c -1.84174,15.11983 27.42043,23.052349 46.18681,12.51918 21.1627,-11.86998 4.45711,-29.56738 -25.54447,-27.0551 l -11.49536,0.96035 -43.13327,-24.20477 -43.13325,-24.20477 v -25.84505 c 0,-24.8194 -0.21911,-25.84506 -5.47725,-25.84506 -5.27871,0 -5.47724,1.02566 -5.47724,27.82722 m 197.18064,21.23921 c 0,46.31212 -0.2807,49.11636 -5.04589,49.96531 -29.3717,5.23201 -17.75311,33.804472 12.61819,31.03865 24.53119,-2.23186 34.87632,-19.24934 16.86304,-27.75039 -4.63512,-2.18961 -9.56464,-3.97972 -10.95446,-3.97972 -1.49258,0 -2.5264,-20.13671 -2.5264,-49.17013 0,-48.14449 -0.11643,-49.17015 -5.47724,-49.17015 -5.36084,0 -5.47724,1.02566 -5.47724,49.06643 m 580.58766,-3.34588 v 45.72056 l -95.3041,53.457155 -95.2973,53.453327 -11.0914,-0.994935 c -32.8223,-2.94252 -47.8847,18.723074 -20.2109,29.0603258 20.1221,7.5176464 50.0277,-5.5047565 41.5516,-18.0930728 l -3.1151,-4.640432 98.5768,-55.389401 98.5834,-55.385557 v -46.45426 -46.45426 h -6.8466 -6.8464 v 45.72055 m 243.8259,4.22556 89.0876,49.93075 64.2754,0.004 64.2685,0.004 190.3341,106.737623 190.3341,106.733771 -0.938,7.744291 c -2.3074,19.030365 40.3399,25.687545 53.2798,8.316665 8.6061,-11.551138 -7.2711,-23.040803 -29.7894,-21.561869 L 2147.3561,78.318206 1954.4887,-29.940476 1761.6213,-138.1993 h -65.2614 -65.2679 l -81.9876,-46.09702 c -71.6216,-40.26574 -83.0486,-46.09701 -90.3128,-46.08933 -7.6203,0.004 -0.7873,4.22942 80.7686,49.93844 m 13.9536,-47.32626 c 2.0675,1.44053 21.4227,12.50381 43.0097,24.58507 l 39.2583,21.9652 h 64.8094 64.8094 l 285.5012,160.183121 c 255.616,143.411629 285.508,159.703079 285.508,155.577409 0,-4.06806 -33.2401,-23.25979 -282.7695,-163.260242 L 1770.8778,-187.36965 h -64.3917 -64.3918 l -38.2654,-21.51194 c -31.5352,-17.72814 -39.6551,-21.51193 -46.1732,-21.51193 -7.0861,0 -7.5173,0.2689 -4.1419,2.61985 m 378.1416,39.63191 0.8079,42.25173 138.2935,77.600482 138.2867,77.6004704 h 63.6866 c 61.8518,0 63.6797,-0.088325 63.6797,-3.0731274 0,-2.9809399 -1.8279,-3.07314 -60.9685,-3.07314 h -60.9755 l -136.0203,-76.444203 -136.0275,-76.444212 1.0273,-40.33487 1.0201,-40.33489 h -6.8123 -6.8055 l 0.8078,42.25176 m 89.8132,-0.34957 v 41.90216 l 93.8867,52.596698 93.8935,52.596694 h 63.5772 c 61.7559,0 63.5838,-0.08833 63.5838,-3.073139 0,-2.980939 -1.8279,-3.073133 -60.9479,-3.073133 h -60.9549 l -89.6693,-50.330254 -89.6761,-50.330256 v -41.09549 -41.09547 h -6.8466 -6.8464 v 41.90219 m 93.1403,0.73753 v 42.63976 l 47.4398,26.50577 47.4397,26.505776 h 63.4472 63.4469 v -3.841416 -3.841416 h -61.5506 -61.5505 l -43.8863,-24.734884 -43.8863,-24.73872 v -40.56538 c 0,-39.54355 -0.1371,-40.56921 -5.4774,-40.56921 -5.347,0 -5.477,1.01797 -5.4499,42.63972 m 125.9765,-9.60352 c 0,26.40975 -0.7258,33.03617 -3.6286,33.03617 -12.2622,0 -21.1286,13.17991 -14.679,21.83462 12.1526,16.32218 58.9969,7.42163 52.7802,-10.02995 -1.8623,-5.20894 -11.4407,-11.80467 -17.1508,-11.80467 -2.9028,0 -3.6286,-6.62642 -3.6286,-33.03617 v -33.0362 h -6.8464 -6.8468 v 33.0362 M 1125.3511,-210.8215 c -9.7498,3.39197 -14.0767,9.53824 -11.8723,16.85999 l 1.7734,5.87736 -59.2639,33.26667 -59.25673,33.27052 -14.24765,-0.8259 c -27.54362,-1.5942 -42.0858,15.98798 -22.37453,27.047416 19.01285,10.667617 50.37701,1.306083 47.13171,-14.067266 l -1.609,-7.60985 57.9696,-32.49455 57.97,-32.49455 h 16.1782 c 15.0966,0 16.6989,-0.35341 24.0863,-5.32037 21.1011,-14.17481 -8.5035,-33.24746 -36.4851,-23.50947 m -323.93791,3.32282 c -19.32097,4.68653 -22.59361,19.02655 -6.16191,26.9975 l 10.26984,4.98232 v 47.52216 47.52602 l -8.01732,2.654419 c -27.10549,8.985072 -6.68223,34.246236 23.22351,28.710754 24.14093,-4.471412 26.92748,-25.848899 3.89568,-29.947692 -5.23077,-0.933463 -5.40879,-2.523812 -5.40879,-48.555511 v -47.59131 l 10.95448,-5.84666 c 23.48368,-12.53453 0.6025,-33.58166 -28.75549,-26.452 m 349.21531,2.93485 c 11.3036,5.1398 4.2583,17.19418 -10.0509,17.19418 -5.7716,0 -17.3766,-7.06052 -17.3766,-10.57542 0,-6.91072 17.4863,-11.13241 27.4275,-6.61876 m -191.01894,4.18716 c -9.20177,5.16287 -9.59884,5.81973 -8.03095,13.25288 l 1.64993,7.82112 -39.62091,22.12656 -39.62101,22.12657 v 37.980095 37.980092 l 62.99508,35.367934 63.00196,35.371771 -3.30683,4.917016 c -6.75079,10.026099 12.26207,21.861501 31.69247,19.737191 38.0464,-4.164084 28.0984,-34.3614792 -10.1943,-30.9272491 L 1007.0903,6.3722452 946.01914,-27.87015 884.9411,-62.112548 v -34.914643 -34.910799 l 37.65607,-21.18542 37.65596,-21.18542 h 15.9662 c 14.57631,0 16.67128,-0.43791 23.96287,-5.01689 24.9283,-15.6461 -14.11071,-35.89803 -40.57264,-21.05095 m -133.48719,2.85801 c 8.98954,7.6982 -6.07287,17.586 -20.29317,13.31433 -11.48167,-3.44573 -13.93272,-9.34998 -5.78534,-13.92129 7.70238,-4.32158 20.67659,-4.01812 26.07851,0.60696 m 160.26403,-0.57238 c 12.83738,3.85678 12.08423,13.67929 -1.3214,17.10584 -16.41116,4.19481 -29.536,-10.42178 -14.61739,-16.28379 7.16842,-2.81958 8.97587,-2.91179 15.93879,-0.82205 m -602.1404,2.50844 c 6.14136,3.11925 6.51107,10.22202 0.69833,13.47954 -9.23599,5.18592 -28.55693,1.17162 -28.55693,-5.93115 0,-8.55098 16.87673,-13.12228 27.8586,-7.54839 m 826.0159,22.13041 c -7.7709,4.35616 -8.2638,5.28579 -6.8807,12.82649 l 1.4991,8.1246 -58.6678,32.89021 -58.6683,32.886381 -14.3982,-0.503227 c -25.1544,-0.879682 -38.8748,9.86476 -28.3722,22.2226 14.4463,16.998273 55.7172,7.655946 51.8147,-11.731689 -1.0478,-5.201278 0.8901,-6.480469 58.7229,-38.836725 l 59.8113,-33.45491 8.8119,1.72479 c 19.9849,3.90674 39.3948,-8.09001 33.2534,-20.56309 -5.4292,-11.03258 -31.6583,-14.15563 -46.9261,-5.58543 m -1213.434796,1.47127 c -16.342707,7.21418 -13.980652,22.48764 4.2243322,27.33553 l 7.5312059,2.00521 v 34.05417 34.05416 l -96.3241231,54.125572 c -80.385359,45.163544 -97.125149,53.883568 -101.150929,52.677347 -27.53683,-8.270565 -53.40994,15.607692 -29.269,27.009008 20.53279,9.691904 47.98063,1.206209 45.18722,-13.971227 l -1.44462,-7.85954 96.974541,-54.394473 96.981383,-54.398312 v -35.694455 -35.69061 l 7.681827,-2.23185 c 18.629461,-5.40488 18.718474,-22.53761 0.136932,-27.92711 -10.591606,-3.07314 -22.2992074,-2.72358 -30.528769,0.90658 m 1247.824996,4.97078 5.5936,4.22556 -5.5936,4.22556 c -14.1998,10.71372 -40.3467,0.80671 -26.7085,-10.11444 6.0388,-4.83637 19.1772,-4.01813 26.7085,1.66332 m -1221.226141,1.32915 c 14.795397,6.5304 -0.650418,20.24042 -17.0205272,15.10828 -10.269825,-3.21912 -11.8993005,-12.3463 -2.8413148,-15.90731 8.174776,-3.21142 11.036637,-3.09617 19.861842,0.79903 m 2235.056341,9.74182 c 10.133,5.6853 3.6218,16.2031 -10.0302,16.2031 -6.4767,0 -18.8485,-6.55345 -18.8485,-9.98769 0,-3.16149 12.1664,-9.98768 17.8012,-9.98768 2.3962,0 7.3803,1.69791 11.0775,3.77227 m -1770.72329,18.12382 c 3.76561,3.79531 3.75875,4.65579 -0.007,8.45111 -8.01047,8.07465 -30.03584,5.17438 -30.03584,-3.95666 0,-9.61507 21.73099,-12.86492 30.04268,-4.49445 m -545.101295,14.42067 c 7.093024,5.0553 7.106713,6.80315 0.08899,11.02871 -7.407967,4.46373 -20.142551,4.43684 -25.749869,-0.0537 -13.152226,-10.53701 11.495356,-21.07786 25.660872,-10.97492 m 181.419882,-1.50585 c 10.38623,5.27811 3.0741,15.8958 -10.94762,15.8958 -14.651624,0 -22.203376,-9.53825 -12.37857,-15.63074 5.64155,-3.49568 16.70559,-3.62245 23.32619,-0.26506 m 607.50128,2.0667 c 14.98024,8.40502 -6.65486,20.80511 -22.38139,12.82264 -9.8864,-5.02457 -2.07448,-15.89579 11.4269,-15.89579 3.0125,0 7.94201,1.38291 10.95449,3.07315 m -86.4651,0.87968 c 5.16233,2.89259 5.6758,10.39871 0.86954,12.63826 -11.77607,5.4817 -29.42647,1.82467 -29.42647,-6.10017 0,-7.64442 18.88278,-11.96986 28.55693,-6.53809 m -925.83159,2.96941 c 15.48688,8.68929 -0.87638,20.382561 -20.34113,14.53593 -6.60006,-1.98218 -7.21627,-10.9442 -0.99274,-14.43221 5.44986,-3.06161 15.973,-3.10771 21.33387,-0.10373 m 1269.76808,5.07836 c 11.8719,5.39719 5.65528,16.041757 -9.37292,16.041757 -22.53888,0 -21.14216,-17.466927 1.49937,-18.726907 0.95856,-0.0538 4.50506,1.15626 7.87355,2.68515 m 359.7589,1.69022 c -9.9068,3.38813 -15.2609,10.56774 -12.8714,17.267174 1.5953,4.479092 -2.2868,6.91071 -86.7868,54.336853 l -88.4643,49.6503121 -14.0012,-0.8105865 c -37.2796,-2.1588838 -44.7903,27.0435754 -8.0174,31.1692524 18.7595,2.105102 37.4643,-9.76103 31.775,-20.15975 l -2.7183,-4.963111 87.3004,-48.96271 87.3003,-48.962703 h 18.0202 c 16.3428,0 18.6295,-0.399508 24.6269,-4.31007 21.4573,-13.986601 -8.1471,-33.839041 -36.1634,-24.254711 m 89.0258,-0.62999 c -9.2361,2.81576 -14.4668,10.02994 -12.6799,17.497656 l 1.4173,5.915782 -87.3551,48.985749 -87.3554,48.9896014 -13.2546,-0.5070728 c -31.4326,-1.2061976 -43.9618,21.3467644 -16.4592,29.6134974 21.2447,6.384439 43.1675,-2.954054 39.7511,-16.932962 l -1.6364,-6.699436 87.7591,-48.981917 87.766,-48.981916 13.3779,0.722185 c 12.0844,0.6492 14.1793,0.268902 21.7174,-3.960499 23.8056,-13.356608 -3.6011,-34.641908 -33.0482,-25.660668 m 91.8327,0.59157 c -11.5432,3.94899 -16.8151,11.32451 -12.5906,17.605222 l 3.2039,4.755675 -87.8344,49.36606 -87.8273,49.3660469 -13.0976,-0.7068131 c -24.5928,-1.3252846 -40.5041,12.3962562 -27.701,23.8820902 16.6918,14.973845 50.7944,7.909475 50.7944,-10.525496 v -9.081101 l 86.1844,-48.378805 86.1842,-48.374976 10.3247,0.925784 c 31.8093,2.854172 49.0556,-18.308197 23.0661,-28.303567 -10.879,-4.17946 -19.5948,-4.32927 -30.7068,-0.53012 m 95.7628,-1.39059 c -11.6459,2.63906 -18.1915,9.36538 -16.5893,17.048216 l 1.4652,7.025951 -86.7869,48.674596 -86.78,48.6707593 h -13.8232 c -27.9475,0 -42.12,16.6755947 -22.9359,26.9859607 22.3676,12.023636 57.4083,-0.722192 46.4469,-16.894558 -3.0054,-4.440673 -2.3414,-4.863222 83.932,-53.357278 l 86.9581,-48.878201 14.3913,0.948831 c 13.7685,0.906572 14.7954,0.718343 24.0655,-4.482936 22.669,-12.718931 -0.6229,-32.479181 -30.3437,-25.741341 m -249.1049,8.59325 c 5.9291,3.32667 5.3952,9.265505 -1.1709,12.949422 -14.1585,7.944051 -34.267,-2.208814 -24.5516,-12.392412 3.5329,-3.70312 19.506,-4.04886 25.7225,-0.55701 m 87.7864,0.0806 c 12.721,7.137351 -4.3475,19.337693 -19.7521,14.121047 -14.8846,-5.039937 -9.6744,-16.617977 7.4762,-16.617977 4.3064,0 9.8248,1.12554 12.2759,2.49693 m 92.2641,0.0461 c 14.5011,7.363989 -5.6277,19.848597 -21.7719,13.502573 -6.7849,-2.665941 -8.4351,-11.040233 -2.8004,-14.201713 4.7448,-2.66211 18.7323,-2.26645 24.5723,0.69914 m 92.6477,-0.23434 c 8.2226,5.558537 0.1369,16.130119 -12.331,16.130119 -12.4674,0 -20.553,-10.571582 -12.3303,-16.130119 1.8758,-1.26766 7.4284,-2.30869 12.3303,-2.30869 4.9025,0 10.4549,1.04103 12.331,2.30869 m 79.6253,11.639501 c -19.5948,10.990297 -5.8059,26.475049 22.9905,25.822007 l 15.1173,-0.345726 157.4842,88.402533 157.4778,88.398705 v 33.91585 c 0,31.59567 -0.3424,33.97735 -5.046,34.8148 -30.6178,5.45094 -20.1701,33.4664 11.598,31.07704 26.4276,-1.98984 34.8283,-16.94066 15.3568,-27.33553 l -10.9545,-5.84662 v -35.02221 -35.02604 l -158.9287,-89.113193 -158.9223,-89.117043 1.7253,-5.850478 c 4.7652,-16.206942 -27.571,-26.183096 -47.8984,-14.774092 m -1300.19465,0.57621 c -4.79943,1.179317 -10.68059,4.271656 -13.07688,6.872296 l -4.36125,4.724944 H 275.79665 140.57045 L 2.0031025,-3.5885494 -136.56422,74.169413 V 174.71467 275.25992 l -10.95447,5.84666 c -20.5739,10.97876 -9.98914,27.06662 17.80102,27.06662 31.432497,0 39.264952,-25.44557 9.46193,-30.7544 -5.24446,-0.93346 -5.354,-3.04624 -5.354,-100.34165 V 77.688147 L 10.602374,1.2439541 146.81448,-75.200257 h 133.54198 c 113.13923,0 133.54195,0.330362 133.54195,2.166561 0,7.675152 30.5767,12.964783 42.81148,7.402409 26.55781,-12.069733 2.86187,-34.972263 -28.25573,-27.312478 m 1333.79714,5.835113 5.5936,4.22556 -5.5936,4.225561 c -11.1188,8.389654 -29.2487,5.581578 -29.2487,-4.525191 0,-9.273182 18.8145,-11.796992 29.2487,-3.92593 m -1311.75122,1.263827 c 12.21424,5.389508 5.87434,16.790834 -9.33869,16.790834 -7.44222,0 -20.00562,-7.13735 -17.92427,-10.183595 0.89005,-1.298401 1.61577,-2.973257 1.61577,-3.722336 0,-1.252299 12.85783,-5.865844 16.74665,-6.007976 0.92429,-0.03457 4.92953,1.371388 8.90054,3.123073 m 632.72382,9.265499 c 4.8954,4.651957 4.8886,4.870917 -0.3628,8.83526 -13.9395,10.525484 -39.9975,0.541641 -26.5987,-10.18744 6.7028,-5.374141 20.6149,-4.675003 26.9615,1.35218 m -256.77288,6.876136 c 6.12081,5.243535 2.36206,11.554983 -8.11316,13.625507 -9.01007,1.774739 -15.01449,0.13061 -20.96415,-5.746758 -8.96213,-8.854467 19.06764,-16.452792 29.07731,-7.878749 m -1228.66141,3.08466 c 0,4.079585 7.33951,8.819893 54.7108,35.32567 l 54.71762,30.61610269 -1.5884,7.68283721 c -2.58113,12.4884451 14.43255,20.7436591 35.93754,17.4400241 33.17839,-5.093717 22.43616,-31.5956569 -12.26901,-30.2588419 l -13.6794,0.5262821 -58.91458,-33.0246652 c -54.77925,-30.704454 -58.91457,-32.690465 -58.91457,-28.307409 m 214.82423,-0.557007 c 12.64557,10.125977 -8.99637,20.017626 -24.61335,11.251513 -8.17479,-4.586652 -8.2638,-5.470178 -1.04752,-10.617679 7.25049,-5.170547 19.61535,-5.474019 25.66087,-0.633834 m 1865.91086,2.055158 c -28.3447,8.627825 -7.141,34.953059 22.9769,28.530203 6.4906,-1.386743 14.371,2.731256 137.4994,71.826831 l 130.6118,73.294255 0.109,33.62774 c 0.097,30.73134 -0.3149,33.7584 -4.7925,35.16051 -25.113,7.88641 -23.1756,27.40851 3.0878,31.1078 29.8988,4.21018 48.3024,-18.5771 23.1276,-28.63777 l -8.0173,-3.19989 V 141.72842 106.8714 l -131.6376,-73.751379 -131.6317,-73.747522 1.3623,-6.065597 c 3.4917,-15.538533 -19.5333,-25.480123 -42.6951,-18.427281 M 538.80004,-29.268429 C 477.18109,5.3273714 476.01719,5.8843942 467.65067,4.5360456 440.46987,0.16450587 419.23187,18.518799 438.2995,29.9086 c 19.82078,11.835413 52.10228,3.295933 48.69269,-12.880266 l -1.51992,-7.1834528 60.76998,-34.0695242 60.77682,-34.073376 h 62.98826 62.98827 l 60.94114,34.219351 60.948,34.219346 -1.76641,7.229549 c -3.29319,13.491046 16.67136,22.514545 37.92304,17.136549 33.62337,-8.504893 17.13688,-33.4126488 -19.39628,-29.3138558 -6.97661,0.78365 -12.96051,-2.139663 -70.39623,-34.3883622 l -62.77601,-35.248847 h -68.51344 -68.51342 l -62.64595,35.17586 M 1703.953,-58.205826 c 7.49,4.202512 5.9632,10.287315 -3.5877,14.270866 l -7.5312,3.138439 -7.5312,-3.138439 c -13.4468,-5.608468 -8.3391,-17.436193 7.5312,-17.436193 3.0123,0 8.0172,1.425164 11.1189,3.165327 m -1372.00095,19.25318 c -4.63511,2.185777 -8.42811,4.95159 -8.42811,6.146266 0,1.820841 -14.49412,2.166568 -91.07278,2.166568 H 141.37832 L 47.594279,21.99529 -46.18977,74.630377 v 75.629833 75.62598 l -8.085774,2.3471 c -15.883999,4.60968 -15.966153,21.98826 -0.13008,26.4789 33.19208,9.40763 62.3789191,-16.60262 30.165906,-26.88993 l -8.222717,-2.62368 V 150.64434 76.09012 L 57.32323,25.798297 147.10889,-24.493545 h 85.59557 85.59558 l 10.42045,6.146266 c 13.15221,7.759664 27.72169,8.5241037 41.182,2.166557 19.23194,-9.077263 6.70275,-26.751628 -18.95812,-26.751628 -7.33947,0 -13.09061,1.206204 -18.95807,3.979704 m 32.56902,7.160413 c 3.76562,3.795319 3.75876,4.655791 -0.007,8.451109 -7.6887,7.748147 -30.03583,5.251225 -30.03583,-3.353559 0,-10.010735 21.53923,-13.663915 30.04264,-5.09755 m 734.03227,7.298688 c 10.5779,5.934992 5.1896,15.3656641 -8.7841,15.3656641 -16.8015,0 -24.0725,-8.4203891 -13.0156,-15.0775651 6.9494,-4.1833 14.6724,-4.287019 21.7997,-0.288099 M 562.81816,-1.1838302 c -14.03543,3.8106958 -16.25371,17.5399122 -3.95045,24.4429452 13.61779,7.636743 39.97018,4.870911 45.42002,-4.7672 1.64318,-2.904117 4.40232,-3.034723 64.58351,-3.034723 h 62.85816 l 3.30689,4.07574 c 5.28555,6.503525 22.55253,10.118287 34.78048,7.279497 30.6794,-7.121981 23.55898,-29.7940423 -9.35925,-29.7940423 -12.64557,0 -15.5485,1.0103004 -28.26939,9.8417231 -3.03987,2.1089327 -11.92669,2.4508126 -63.79616,2.4508126 H 608.1218 l -4.63512,-4.5290298 c -7.43537,-7.2679541 -25.90735,-9.980005 -40.66852,-5.9657228 m -818.67627,3.6915981 c 2.36891,1.3252951 4.30649,4.7672125 4.30649,7.6406001 0,9.365367 -22.12806,12.158073 -30.09743,3.79915 -8.36649,-8.7737946 13.36445,-18.4157503 25.79094,-11.4397501 m 845.5353,3.1999133 c 6.23034,3.165317 6.45628,9.3730438 0.47241,13.0877058 -9.40718,5.827417 -28.33103,1.724791 -28.33103,-6.142435 0,-8.2206159 16.99998,-12.45771592 27.85862,-6.9452708 M 772.81554,5.5501776 c 5.26502,3.560992 4.37497,11.5319384 -1.56099,13.9673894 -15.61699,6.407492 -32.61013,-3.426541 -23.11397,-13.3796489 3.5123,-3.6839213 19.52638,-4.0642197 24.67496,-0.5877405 m 748.05416,2.9770967 c -4.457,2.1012557 -8.7226,5.6468937 -9.4824,7.8710697 -6.1893,18.166058 36.0061,27.335518 52.2254,11.34754 l 4.6489,-4.586657 61.4683,-0.0072 61.4682,-0.01203 94.9548,53.568561 94.948,53.572372 -1.3419,7.82114 c -3.1766,18.55789 39.1416,24.88085 52.7937,7.89028 9.1745,-11.41285 -11.8581,-25.51854 -32.1444,-21.55419 l -8.7706,1.71711 -98.8228,-55.347137 -98.7823,-55.350974 h -62.4063 -62.3997 l -9.0371,-5.377972 C 1548.6256,3.1992548 1533.392,2.5999934 1520.8354,8.5272883 M -402.20994,11.723405 c 0,4.04501 7.15463,8.68545 52.03377,33.735332 l 52.03378,29.048777 V 182.90464 291.29792 l -52.03431,29.04889 c -45.07768,25.16128 -52.03378,29.67493 -52.03378,33.77373 0,4.40995 3.8957,2.54686 57.51103,-27.50838 l 57.51101,-32.24101 V 182.94298 71.514987 L -344.69945,39.273978 C -398.08885,9.3416526 -402.21048,7.3710142 -402.21048,11.723331 m 735.85354,-0.83742 c -3.88199,1.71327 -7.82562,4.479092 -8.77045,6.146268 -1.66371,2.942521 -4.52556,3.034722 -92.41473,3.034722 H 141.76123 L 94.342026,46.515047 46.922819,72.963215 v 51.148475 c 0,44.54122 -0.534043,51.14845 -4.128464,51.14845 -11.687056,0 -22.264975,13.11846 -16.657661,20.65533 12.269008,16.46815 53.649566,11.83538 53.649566,-6.008 0,-7.09512 -1.800635,-8.72386 -17.540861,-15.8612 -3.827204,-1.73631 -4.368096,-7.86724 -4.368096,-49.66185 V 76.700904 L 102.81121,51.455117 147.74513,26.213169 h 86.15697 86.15701 l 7.16148,6.073277 c 16.21264,13.748426 51.07528,7.9018 51.07528,-8.566365 0,-13.487214 -26.14699,-21.0010279 -44.65321,-12.83417 m 132.40543,-0.0035 c 8.77045,2.635215 11.76239,7.291007 7.98311,12.415465 -4.13536,5.604623 -13.93276,7.218017 -23.18244,3.81836 -12.89892,-4.744147 -7.43535,-15.361831 9.09908,-17.6820388 0.47924,-0.069105 3.2247,0.5838958 6.10025,1.4482138 m 424.84215,2.508451 c 6.1414,3.119224 6.51103,10.22201 0.69835,13.479516 -9.23599,5.185929 -28.55696,1.171636 -28.55696,-5.931138 0,-8.550988 16.87672,-13.1222805 27.85861,-7.548378 m 144.56496,0.818255 c 6.7644,4.07574 7.1408,8.493385 1.0543,12.269495 -6.2098,3.845257 -21.7652,3.745369 -25.4966,-0.165192 -10.0645,-10.548524 10.2904,-20.6284056 24.4423,-12.104303 m 517.6266,1.632602 c 3.7655,3.79532 3.7587,4.655805 -0.012,8.451123 -8.0105,8.074658 -30.036,5.174385 -30.036,-3.956665 0,-9.615072 21.731,-12.864912 30.0428,-4.494458 M 364.02861,18.300154 c 9.37981,6.710957 -5.60731,17.451557 -19.42364,13.921296 -8.33225,-2.131988 -11.37896,-6.080954 -8.9279,-11.562658 2.97141,-6.641809 20.3411,-8.090033 28.35154,-2.358638 m 789.29079,-1.306087 c 13.7413,7.709736 -2.1292,20.501656 -18.1294,14.6166 -8.3599,-3.073127 -10.3726,-5.765969 -8.0996,-10.844322 2.9166,-6.530399 17.5615,-8.6355 26.229,-3.772278 m 95.1671,1.217743 c 7.9694,5.689135 0.2533,14.147933 -12.9125,14.147933 -11.5639,0 -17.0959,-3.18837 -16.0552,-9.25398 1.4515,-8.508738 19.6017,-11.578034 28.9677,-4.893953 m 89.3202,-1.106332 c 16.2538,7.171921 0.5409,19.522083 -18.1159,14.236289 -10.4683,-2.965575 -11.2421,-10.118288 -1.5952,-14.731829 7.2779,-3.480324 10.9065,-3.388124 19.7111,0.49554 m 92.1546,-0.403341 c 12.3922,5.631508 6.0523,15.657606 -9.9,15.657606 -22.5319,0 -21.9228,-16.97138 0.6573,-18.262103 1.7115,-0.09611 5.8742,1.075603 9.2427,2.604497 M -187.38659,41.920714 c 12.64559,10.125976 -8.99637,20.017631 -24.61334,11.251517 -8.18162,-4.590488 -8.41442,-6.92223 -1.13653,-11.3053 7.40796,-4.463725 20.14255,-4.436829 25.74987,0.05377 M -402.2108,84.260799 c 0,4.152579 3.40958,6.876142 20.53964,16.425891 l 20.53966,11.45128 -0.0685,70.3594 -0.0685,70.35938 -20.49173,11.82005 c -17.16431,9.90321 -20.48488,12.64597 -20.4575,16.90226 0,5.07833 0.0685,5.06683 26.01689,-9.66885 l 25.98266,-14.75108 v -74.40058 -74.40059 l -26.01692,-14.5359 c -25.82514,-14.428362 -26.01684,-14.501371 -26.01684,-9.561284 m 2581.23174,3.948982 c 5.3951,4.317736 5.0733,6.561124 -1.4514,10.222014 -10.3109,5.785148 -30.1797,2.331718 -30.0838,-5.232042 0.1238,-9.169446 21.998,-12.634411 31.5352,-4.989972 M -215.44378,99.192354 c -18.39669,4.521356 -20.80667,19.233986 -4.35441,26.597976 l 9.29076,4.14105 v 47.9793 47.97546 l -8.08576,2.34711 c -24.46959,7.09894 -12.03625,28.37654 16.61656,28.44186 27.57791,0.0652 37.0193,-23.0562 12.02941,-29.44448 l -6.86711,-1.75552 v -47.82565 -47.82564 l 7.85985,-2.60451 c 30.28915,-10.03758 5.82642,-35.959487 -26.44824,-28.026956 m 22.32663,7.033626 c 12.21423,5.38952 5.87433,16.79085 -9.3387,16.79085 -11.59122,0 -23.69593,-11.66254 -15.28153,-14.72415 0.18488,-0.0693 3.38907,-1.27921 7.11358,-2.68899 8.53081,-3.22679 8.80467,-3.21911 17.50665,0.62229 m 2110.94889,27.01671 c 6.2305,3.16532 6.4562,9.37305 0.4725,13.08771 -9.4071,5.82741 -28.331,1.72479 -28.331,-6.14244 0,-8.22065 16.9999,-12.45772 27.8585,-6.94527 m 229.8114,11.79314 c -31.3641,6.03103 -19.533,31.65712 13.7822,29.85934 l 12.9058,-0.69529 44.701,25.11517 44.7011,25.11519 h 36.3143 c 34.4929,0 36.3208,-0.15365 36.3208,-3.07312 0,-2.90412 -1.8279,-3.07313 -33.3564,-3.07313 h -33.3564 l -43.0376,-23.97814 -43.0372,-23.98198 1.3554,-8.67007 c 2.0542,-13.15686 -15.2335,-20.85889 -37.293,-16.61797 m 20.4233,7.87491 c 11.0092,6.17315 4.9979,16.20311 -9.7083,16.20311 -15.1037,0 -21.3749,-11.42442 -9.2157,-16.79084 9.1746,-4.04886 10.7491,-3.99894 18.924,0.58773 M 61.616023,183.05439 c 12.974205,5.72371 6.497376,16.79084 -9.824802,16.79084 -6.990326,0 -15.82239,-5.51245 -15.82239,-9.87631 0,-3.34969 10.975019,-10.09906 16.431725,-10.09906 1.102298,0 5.244459,1.43285 9.215467,3.18453 m 1926.304277,3.33819 c 3.7315,1.67486 4.5462,8.5971 1.3282,11.30145 -9.2086,7.73662 -30.7682,4.40611 -30.7682,-4.75182 0,-8.27828 17.1095,-12.08512 29.44,-6.54963 m 112.167,2.19728 c 9.0376,7.74047 -8.4554,17.32095 -22.3196,12.22341 -12.9538,-4.76338 -11.7008,-13.35279 2.3825,-16.27611 7.8805,-1.63642 14.9804,-0.19206 19.9371,4.0527 m -138.9574,40.83428 c -25.4486,9.64964 -12.7963,28.04233 19.2934,28.04233 h 16.021 l 57.4222,32.19493 57.4219,32.19492 -0.3558,8.81222 c -0.5685,13.75226 15.3908,20.8512 37.6214,16.73704 30.8714,-5.71603 17.7053,-32.45997 -14.9046,-30.29341 l -12.6388,0.84126 -59.2366,-33.31661 -59.2363,-33.31661 1.5748,-6.37291 c 3.6286,-14.72031 -21.3337,-23.73613 -42.9826,-15.52316 m -2152.46653,5.76214 c 10.6053,5.95033 3.75876,15.36566 -11.18041,15.36566 -9.53725,0 -16.20579,-3.63015 -16.20579,-8.82375 0,-8.62782 16.6029,-12.59216 27.3862,-6.54191 m 166.973673,1.92069 c 3.765595,3.79531 3.758756,4.6558 0,8.4511 -8.010471,8.07469 -30.035826,5.17441 -30.035826,-3.95664 0,-9.61508 21.730954,-12.86493 30.042663,-4.49446 M 1987.3658,235.8854 c 10.1672,5.70067 2.9851,16.2031 -11.0777,16.2031 -5.6346,0 -17.801,-6.82619 -17.801,-9.9877 0,-3.16147 12.1664,-9.98768 17.801,-9.98768 2.3962,0 7.3806,1.69791 11.0777,3.77228 m -127.6812,5.32805 c -19.3346,10.84816 -2.6978,29.20629 24.627,27.17035 l 13.3233,-0.99111 97.3306,54.57886 97.3237,54.57888 h 64.3712 c 62.2421,0 64.426,0.10395 66.124,3.11538 6.4358,11.37445 41.8735,10.295 50.6166,-1.54039 13.1317,-17.78578 -35.1639,-30.65838 -50.9109,-13.5679 l -3.9779,4.31007 h -62.3172 -62.3242 l -95.2013,-53.55704 c -92.3189,-51.93596 -95.0987,-53.67612 -91.9903,-57.50988 11.8377,-14.57432 -26.4756,-28.09997 -46.9946,-16.58722 m 224.5052,0.28042 c -22.6552,13.61012 8.9759,33.96197 36.807,23.68617 4.2859,-1.57881 8.8731,-4.47908 10.2082,-6.44587 l 2.4168,-3.57255 h 61.3108 61.3178 l 40.0796,22.61828 c 39.806,22.45693 40.0867,22.57985 40.0729,17.28638 0,-4.80177 -3.7176,-7.39474 -37.2315,-26.07554 l -37.2245,-20.74365 h -62.2627 -62.2625 l -9.6879,-5.76214 c -13.3096,-7.91716 -31.323,-8.32818 -43.544,-0.99108 m 35.8553,6.73016 c 2.6154,2.73893 2.588,4.25628 -0.109,7.12968 -9.373,9.97616 -29.9947,7.16424 -29.9947,-4.09497 0,-9.79943 21.5735,-11.97368 30.1041,-3.03471 m -230.6328,-2.96172 c 8.0037,3.14611 8.4964,12.14271 0.7873,14.45525 -19.0539,5.71985 -36.9645,-5.66994 -21.5734,-13.71385 7.182,-3.75692 12.6251,-3.94899 20.7861,-0.7414 M 29.923731,252.17685 c -7.770827,4.35616 -8.263789,5.28578 -6.880789,12.8188 l 1.492549,8.12459 -88.094562,49.41218 -88.094559,49.4083 h -45.0635 -45.06398 l -80.20735,44.91001 c -69.71156,39.0288 -80.21418,45.51695 -80.21418,49.54276 0,4.2371 7.17519,0.61461 82.85695,-41.83303 l 82.86381,-46.47346 h 46.28952 46.28267 l 88.956794,-49.93844 88.957227,-49.93843 H 48.68332 c 15.993567,0 23.422073,-2.6813 28.591217,-10.3142 10.269822,-15.14672 -26.578313,-27.37778 -47.350751,-15.71908 m 31.172343,3.99122 c 10.694318,5.43178 2.991956,15.89581 -11.693914,15.89581 -14.138119,0 -20.85458,-9.66118 -10.687457,-15.36567 6.661703,-3.73772 15.644375,-3.949 22.381371,-0.53014 m -179.167379,30.10137 c 1.88282,0.8451 3.42328,3.85677 3.42328,6.69176 0,9.67267 -21.74465,12.47305 -29.96051,3.8606 -8.67457,-9.09647 11.71445,-17.2057 26.53723,-10.55236 m -125.01115,11.20155 c -8.62665,5.51629 -10.83809,11.64719 -5.78532,16.0802 2.0471,1.80161 -7.03827,7.73659 -41.65443,27.2049 l -44.2698,24.90006 -11.33788,-0.872 c -35.86223,-2.75812 -47.99433,24.56973 -13.31655,29.99765 20.70398,3.24214 38.38177,-5.54317 35.91017,-17.84724 l -1.41725,-7.0682 41.76396,-23.43265 41.77081,-23.43648 15.78814,0.20742 c 20.09464,0.26121 31.5626,-5.5278 31.5626,-15.94186 0,-14.65501 -31.54206,-20.95495 -49.01445,-9.7918 m 32.57588,3.78766 c 10.2493,5.7506 2.66332,15.36566 -12.12524,15.36566 -14.67216,0 -21.14899,-11.33986 -9.17436,-16.0456 8.1953,-3.21913 14.72007,-3.01168 21.2996,0.67994 m 2081.65212,23.90897 c -22.8332,10.78287 -6.4083,30.00146 23.7302,27.75808 l 12.9742,-0.96804 58.2163,32.68664 58.2092,32.69047 -1.7183,7.03364 c -4.0191,16.46046 25.6129,25.74517 46.6454,14.61657 20.5466,-10.87505 5.9429,-27.96935 -22.9358,-26.85151 l -13.5906,0.52628 -58.9624,-32.92862 -58.9556,-32.93248 1.6637,-5.85047 c 4.4433,-15.5808 -24.4013,-25.63379 -45.2763,-15.78056 m 277.299,0.78749 c 11.3447,5.00537 3.9162,16.79083 -10.5847,16.79083 -2.3964,0 -7.3805,-1.69791 -11.0778,-3.77227 -15.6307,-8.76995 4.238,-20.70908 21.6625,-13.01856 m -249.2144,4.6097 c 12.9263,5.7045 6.3742,15.25428 -10.4616,15.25428 -10.9749,0 -15.1856,-2.40475 -15.1856,-8.67009 0,-8.63935 13.2755,-12.04668 25.6472,-6.58419 M 38.823854,348.55034 c -11.331037,3.07696 -17.177995,9.66884 -16.062011,18.10843 l 0.883212,6.72632 -42.339071,23.8629 -42.339066,23.86289 h -66.370458 -66.37047 l -3.60813,-4.22554 c -12.74827,-14.95466 -54.20413,-9.37307 -54.20413,7.29866 0,15.72678 37.45748,21.68095 52.20494,8.29747 l 5.75111,-5.22432 h 69.93751 69.937504 l 44.5025801,-24.88855 44.4957339,-24.89239 13.693101,0.41104 c 19.998773,0.59541 29.481244,-4.22942 29.481244,-14.98922 0,-12.55761 -19.793386,-19.72952 -39.593599,-14.34769 m 24.770818,8.15916 c 4.19693,2.35479 5.24446,4.29086 3.957299,7.2987 -4.854197,11.29762 -31.58314,10.21048 -31.58314,-1.28688 0,-8.69697 16.45911,-12.27717 27.625841,-6.01182 M 2259.619,366.08255 c 10.2492,6.17317 2.9096,15.46172 -12.2142,15.46172 -15.3158,0 -22.3131,-9.01581 -11.8446,-15.26579 7.4832,-4.47143 16.8357,-4.5444 24.0588,-0.19593 m -2600.58699,6.63414 c 11.83768,6.64182 5.66211,16.12628 -10.48892,16.12628 -15.88399,0 -22.10751,-7.33328 -12.21425,-14.38994 6.35361,-4.53288 16.35642,-5.29732 22.70317,-1.73634 m 132.7957,47.41846 c 7.40796,8.71232 -13.99436,17.39779 -25.4144,10.31806 -5.81956,-3.60709 -6.50423,-9.84555 -1.45833,-13.25675 6.05921,-4.09879 22.40877,-2.31254 26.87273,2.93869 m 2386.83749,0.0538 c -26.2769,14.74336 11.7487,36.59334 38.8338,22.31862 3.5944,-1.89381 7.2503,-4.71725 8.1336,-6.27302 1.4858,-2.62369 5.5661,-2.83112 56.1898,-2.83112 52.7595,0 54.5874,-0.10364 54.5874,-3.07313 0,-2.96943 -1.8279,-3.07314 -53.5127,-3.07314 h -53.5126 l -10.4204,-6.14627 c -14.0287,-8.27443 -26.681,-8.56252 -40.2989,-0.92194 m -116.9802,1.19085 c 11.4135,6.01564 4.7584,15.09676 -11.071,15.09676 -11.0364,0 -15.4524,-2.35864 -15.4524,-8.25521 0,-9.30007 14.679,-13.08771 26.5234,-6.84155 m 148.2005,3.11154 c 6.0661,3.40349 3.971,11.66254 -3.6696,14.47445 -14.1587,5.20128 -31.3984,-4.47141 -22.1283,-12.41546 5.0118,-4.28701 19.7318,-5.46249 25.7979,-2.05899 m -334.0431,16.15317 c -24.7913,8.63164 -13.8437,29.63652 15.4527,29.63652 h 12.659 l 43.907,24.58508 43.9138,24.58505 h 45.6733 45.6666 l 91.7164,51.47502 91.7165,51.47498 h 34.931 34.9311 v -3.84143 -3.84139 h -33.5618 -33.5685 l -90.3404,-50.70673 -90.3401,-50.7067 h -45.2421 -45.2352 l -41.7639,-23.46722 -41.7639,-23.47106 1.7528,-7.15271 c 4.0326,-16.50274 -17.7462,-26.49043 -40.5043,-18.56941 m 26.4482,7.54835 c 12.4539,6.98756 -4.7173,19.21479 -19.8071,14.10186 -14.8296,-5.02073 -9.5782,-16.59876 7.5313,-16.59876 4.3064,0 9.8247,1.12554 12.2758,2.4969 m -2240.41727,15.01993 c -10.77647,6.04639 -11.98831,11.50504 -4.14902,18.71538 11.15304,10.25657 30.6931,10.47939 47.06319,0.5301 l 9.92067,-6.031 h 151.10335 151.103366 l 2.86871,3.45728 c 13.556156,16.34907 63.741363,8.15147 55.997942,-9.14642 -6.545307,-14.63198 -47.138516,-17.21341 -54.895645,-3.49185 -2.697555,4.77103 -309.464083,4.77103 -312.161613,0 -5.73743,-10.14903 -31.93233,-12.40396 -46.85095,-4.03349 m 2453.63937,2.35863 c -26.7015,9.1349 -8.8253,31.70706 22.4977,28.40728 8.3324,-0.87584 10.8656,0.26121 53.5948,24.06262 l 44.8449,24.98075 49.9799,0.12292 49.9798,0.12294 v -3.45729 c 0,-3.45343 -0.077,-3.45726 -47.207,-3.45726 h -47.2137 l -42.8596,-24.0127 c -42.5375,-23.83216 -42.8454,-24.05112 -41.4559,-29.86704 3.7453,-15.66528 -19.0607,-24.80785 -42.1609,-16.90222 M -306.46822,467.496 c 6.69594,4.02965 7.03824,7.08358 1.32138,11.66255 -5.60732,4.49062 -21.64194,4.76719 -25.76356,0.44175 -10.19453,-10.69066 10.10552,-20.73979 24.44218,-12.1043 m 365.557853,0.0538 c 5.504638,4.40995 5.415625,8.69313 -0.267016,12.21572 -9.407158,5.82742 -28.331017,1.72478 -28.331017,-6.14244 0,-8.73538 19.978238,-12.9763 28.598033,-6.07328 m 2084.932067,5.48556 c 7.2232,5.15517 -1.4787,15.6845 -12.9672,15.6845 -6.7096,0 -16.473,-5.78516 -16.473,-9.75337 0,-8.95432 19.6564,-12.91482 29.4402,-5.93113 m -273.3897,21.71169 c -18.6157,10.44483 -0.8624,30.16282 24.3737,27.07432 6.5866,-0.80287 11.8036,1.61723 51.1167,23.72076 l 43.7905,24.6158 h 45.9401 45.9405 l 91.8122,51.47498 91.8055,51.475 h 35.4994 c 33.6713,0 35.4992,-0.15751 35.4992,-3.07315 0,-2.90026 -1.8279,-3.07314 -32.1239,-3.07314 h -32.1311 l -91.8875,-51.47498 -91.8874,-51.475 h -46.132 -46.1253 l -42.2708,-23.73996 c -37.2863,-20.94724 -41.9213,-24.10106 -39.3607,-26.79004 15.1719,-15.9073 -21.2037,-31.44199 -43.8591,-18.73459 m 29.7279,4.04885 c 11.8378,4.65195 4.8269,16.04559 -9.866,16.04559 -14.6515,0 -22.2034,-9.53822 -12.3785,-15.63071 5.5527,-3.43806 14.145,-3.59943 22.2445,-0.41488 m -2302.57029,16.04554 c 0,3.03474 1.82804,3.07315 145.81099,3.07315 h 145.80413 l 60.591981,33.96966 60.585127,33.96965 -1.3761621,6.84157 C 6.2068818,607.61553 29.15653,616.3048 51.435191,608.68344 78.58177,599.39873 59.247102,575.32456 28.848433,580.5604 c -8.6609,1.49048 -8.914207,1.37141 -71.279445,-33.64695 l -62.591148,-35.14506 h -148.59753 c -146.76266,0 -148.5907,0.0384 -148.5907,3.07312 M 1870.632,543.91718 c -18.3212,10.28349 -6.7985,26.24076 18.9513,26.24076 9.3935,0 13.2412,1.77856 56.573,26.12161 l 46.4952,26.12166 h 45.235 45.2352 l 90.3403,50.7067 90.3402,50.70671 h 36.307 c 34.4727,0 36.3006,-0.15365 36.3006,-3.07315 0,-2.9041 -1.8279,-3.0731 -33.2743,-3.0731 h -33.2742 l -91.7918,-51.475 -91.7984,-51.47499 h -45.4407 -45.4473 l -42.2363,-23.73612 c -40.7509,-22.8987 -42.1199,-23.87442 -38.9911,-27.7312 9.6055,-11.82389 -2.5537,-23.82447 -24.1409,-23.82447 -8.9212,0 -13.1044,0.96803 -19.3828,4.49059 m 29.7279,4.04887 c 11.8378,4.65195 4.8269,16.04561 -9.866,16.04561 -15.5689,0 -23.1276,-11.20926 -10.8244,-16.04561 3.3481,-1.31759 8.0036,-2.39319 10.3453,-2.39319 2.3415,0 6.997,1.0756 10.3451,2.39319 m -2302.57029,24.49673 v 3.84142 h 145.85208 145.85888 l 60.222271,33.81983 60.2291034,33.81985 -0.7257221,8.05159 c -1.3213934,14.77016 20.4711897,22.51447 42.3185187,15.03906 26.434531,-9.03885 11.550132,-30.6353 -19.855004,-28.81447 l -14.049108,0.81438 -62.70072,-35.20658 -62.700689,-35.20659 H -254.989 -402.21039 v 3.84142 M 48.977268,589.8144 c 7.880386,5.62 -0.465544,15.68452 -13.008437,15.68452 -7.366879,0 -16.452251,-5.33575 -16.342703,-9.60355 0.225934,-9.04656 19.581127,-13.05699 29.35114,-6.08097 m -451.187658,40.26958 c 0,3.0347 1.82804,3.07313 144.55808,3.07313 h 144.55806 l 61.372468,34.44215 61.3793261,34.43832 -0.7120354,7.48689 C 7.7405122,722.3049 28.150084,731.56654 46.074335,726.36525 76.918056,717.41476 67.100103,695.10381 32.894733,696.40989 l -13.426084,0.51475 -62.46107,-34.95689 -62.461089,-34.95689 h -148.37843 c -146.55041,0 -148.37845,0.0384 -148.37845,3.07312 m 2285.63889,0.74908 c -21.3886,6.42669 -19.0406,29.98226 2.9916,29.98226 2.8896,0 3.5947,9.24245 3.5947,47.09962 v 47.10345 l -10.9546,5.67377 c -18.0338,9.34234 -15.4869,21.58492 5.6074,26.92066 31.4256,7.95175 54.6492,-18.52716 24.6475,-28.10766 l -8.3116,-2.65443 v -47.77185 -47.77186 l 6.7026,-1.71327 c 17.0481,-4.35617 21.3955,-17.53223 8.2227,-24.9116 -10.0574,-5.63534 -21.8677,-7.03748 -32.4662,-3.84909 m 23.4904,7.9402 c 6.5727,3.3382 6.3606,8.98892 -0.4724,12.82265 -14.9801,8.40502 -37.0808,-3.73385 -22.8537,-12.55758 5.6416,-3.4957 16.7055,-3.62247 23.3261,-0.26507 M 49.127909,648.2923 c 9.859025,7.05283 -6.805473,18.27362 -19.964553,13.43728 -8.695108,-3.19606 -10.728538,-5.84665 -8.434942,-10.97111 3.012481,-6.74167 20.327407,-8.24367 28.399495,-2.46617 M 2052.7777,646.8095 c -26.8111,9.17331 -12.5359,30.77744 19.1158,28.94509 l 14.4804,-0.83742 90.1004,50.5684 90.1006,50.57227 h 34.938 34.9313 v -3.84143 -3.84142 h -33.5347 -33.5275 l -88.1562,-49.44288 -88.1493,-49.43903 1.5544,-7.35633 c 2.8824,-13.6447 -21.1013,-22.42619 -41.8532,-15.32725 m 26.7084,7.32943 c 14.6174,7.42163 -4.6487,19.74873 -21.2995,13.62551 -8.1474,-2.99247 -9.2498,-12.06206 -1.7665,-14.50903 7.2231,-2.35864 17.4451,-1.96681 23.066,0.88352 m -2481.69649,15.54622 c 0,2.55839 7.36004,2.74661 122.55326,3.12307 l 122.55326,0.40334 42.90732,24.0012 c 39.935928,22.34551 42.722476,24.27005 40.27825,27.87332 -11.105096,16.38748 26.900102,28.89514 48.350347,15.91115 17.5819368,-10.63689 0.629885,-27.64285 -25.859417,-25.93725 l -12.563423,0.80668 -43.920617,-24.45062 -43.92062,-24.45446 H -277.0212 c -117.97976,0 -125.18919,0.15751 -125.18919,2.72357 m 0,35.6906 c 0,2.97711 1.82804,3.07314 58.20939,3.07314 h 58.20934 l 96.65961,54.24849 c 90.64149,50.8719 96.495295,54.48666 94.057923,58.08224 -11.317353,16.70247 38.135274,28.89899 51.321731,12.65746 10.420449,-12.83032 -3.861454,-24.55818 -28.180402,-23.14837 l -14.480449,0.83741 -96.947153,-54.40982 -96.95399,-54.41368 h -60.948 c -59.11996,0 -60.948,0.0921 -60.948,3.07313 m 449.60612,-0.53011 c 10.694316,5.43177 2.991933,15.89578 -11.693905,15.89578 -7.914608,0 -16.164711,-4.70574 -16.164711,-9.21941 0,-7.75197 17.486094,-11.94296 27.858616,-6.67637 m -78.324535,24.09338 c 1.944416,4.95542 -7.784521,11.77777 -16.780891,11.77777 -6.093433,0 -14.911789,-5.73524 -14.911789,-9.69573 0,-11.0095 27.495741,-12.81882 31.69268,-2.08204 m 2149.618305,5.14364 c -13.4054,4.01428 -18.9718,11.27072 -14.8503,19.34538 2.5126,4.90934 2.1981,5.12062 -61.078,40.64603 l -63.6043,35.70982 -14.3641,-0.94881 c -34.0207,-2.24341 -48.2136,18.35045 -20.0811,29.13714 19.2046,7.364 42.9553,-2.24724 40.7644,-16.49889 -0.8214,-5.36646 1.1572,-6.66487 64.3645,-42.15187 l 65.2202,-36.61639 13.3234,0.71835 c 34.4039,1.85541 42.7019,-23.33277 9.9823,-30.28575 -9.6194,-2.04748 -9.7085,-2.03979 -19.677,0.94499 m 24.4901,8.51258 c 5.7374,4.59819 5.3677,8.25906 -1.2118,11.95066 -14.9529,8.38964 -37.0538,-3.75305 -22.8539,-12.55759 6.3331,-3.92209 18.8076,-3.61093 24.0657,0.60693 M 16.723196,750.96186 c -3.724538,1.40979 -7.1888866,2.73892 -7.6955343,2.95404 -9.18122072,3.85295 -3.1151803,19.41837 9.1469883,23.47873 l 9.578334,3.16919 v 48.0792 48.07532 l -91.743777,51.45963 -91.743787,51.45962 v 26.12931 26.1293 l -45.15984,25.3072 -45.15984,25.311 v 27.1974 27.2011 l 90.37447,50.8066 90.374452,50.8066 v 33.8236 c 0,32.798 0.164324,33.8238 5.47724,33.8238 5.319779,0 5.477251,-1.0258 5.477251,-35.733 v -35.7365 l -90.374473,-50.6876 -90.37444,-50.6874 v -23.771 -23.7705 l 46.55652,-26.2753 46.55655,-26.2791 v -25.7721 -25.77211 l 90.374455,-50.85267 90.374472,-50.85651 v -50.32258 c 0,-48.74759 0.171154,-50.34945 5.408776,-51.28291 9.071673,-1.61339 16.50017,-8.33588 16.50017,-14.93542 0,-12.19267 -25.496541,-19.44145 -43.893219,-12.47694 m 30.117966,8.57789 c 3.76561,3.79532 3.75875,4.6558 -0.0078,8.4511 -8.01046,8.07466 -30.035813,5.1744 -30.035813,-3.95666 0,-9.61506 21.730953,-12.8649 30.042661,-4.49444 m -332.126698,1.19085 c -3.88197,1.71327 -7.82558,4.47908 -8.77042,6.14626 -1.62948,2.8849 -4.3544,3.0347 -54.93671,3.0347 -51.39022,0 -53.21824,0.10375 -53.21824,3.07314 0,2.96558 1.82802,3.07314 51.93793,3.07314 50.76718,0 52.00638,0.0768 55.17635,3.39197 10.85862,11.38595 34.356,12.9571 49.29517,3.29592 20.97096,-13.56787 -14.19291,-33.17446 -39.48408,-22.01513 m 29.43334,6.44972 c 5.50461,4.40995 5.4156,8.69313 -0.26701,12.21571 -9.40715,5.82744 -28.33104,1.72479 -28.33104,-6.14243 0,-8.73539 19.97822,-12.97632 28.59805,-6.07328 m 2163.50998,0 c 12.0432,9.64581 -8.1406,20.32495 -23.593,12.48076 -10.3521,-5.25506 -2.7046,-15.89577 11.4266,-15.89577 5.0666,0 9.4347,1.22539 12.1664,3.41501 m 207.7792,19.56048 c -10.3863,3.55332 -15.7402,11.94682 -11.55,18.12767 2.5399,3.74922 -0.8285,5.93884 -62.2627,40.51927 l -64.9531,36.55877 -11.7624,-0.90273 c -25.2639,-1.94376 -41.1752,8.32435 -32.2609,20.82049 12.4126,17.41313 56.3469,10.67912 52.5814,-8.05931 l -1.335,-6.65334 63.8235,-35.77127 63.8304,-35.77129 16.8151,-0.18436 c 31.7133,-0.35343 42.7292,-17.63598 18.0269,-28.28053 -9.7289,-4.191 -19.5126,-4.31776 -30.9532,-0.40337 m 27.701,7.09895 c 10.4412,5.85432 -0.2601,17.21724 -14.4187,15.30422 -20.1358,-2.72358 -18.1982,-17.72047 2.2935,-17.72047 4.3067,0 9.7635,1.08712 12.1252,2.41625 m -2349.72887,3.67624 c -21.27225,4.82865 -15.17883,30.78512 7.22995,30.78512 1.53362,0 2.54692,28.06155 2.54692,70.33252 v 70.33249 l -81.57665,45.67828 -81.5835,45.6784 h -21.11476 c -19.29359,0 -21.12161,0.2649 -21.12161,3.073 0,2.8388 1.82802,3.0731 23.97663,3.0731 h 23.98347 l 85.56133,-48.0254 85.56818,-48.02915 v -71.64629 -71.6501 l 6.70963,-2.46619 c 27.83806,-10.23355 1.12967,-34.24625 -30.17959,-27.13578 m -160.66116,6.07328 c -15.58276,7.81345 -11.11196,22.2495 8.17478,26.3867 6.14135,1.3176 6.16191,1.45206 6.16191,36.0056 v 34.68031 l -7.97625,2.56991 c -27.37936,8.81606 -18.31452,29.43296 12.98107,29.52131 29.45385,0.0844 38.97739,-25.023 11.35842,-29.94002 -5.176,-0.92192 -5.40876,-2.46618 -5.40876,-35.67138 v -34.70339 l 10.95446,-5.26276 c 15.30205,-7.34861 15.78131,-16.15313 1.27345,-23.302 -12.87834,-6.34218 -25.24322,-6.43439 -37.51908,-0.28428 m 184.60353,1.13321 c 5.68264,2.88493 6.70961,11.25152 1.71848,14.05192 -5.63471,3.1615 -20.56019,2.23569 -25.3117,-1.57115 -11.61859,-9.30389 8.69514,-20.04451 23.59322,-12.48077 m -155.0812,4.30239 c 15.84975,8.88906 -5.25131,20.60537 -22.85379,12.68821 -6.1619,-2.76966 -2.93034,-12.26181 4.9295,-14.48214 9.29079,-2.62369 10.21506,-2.5315 17.92429,1.79393 m 2523.3031,0.71835 c -17.2534,9.68037 -4.5598,27.7773 19.4851,27.7773 8.6131,0 23.0251,-5.35879 26.7566,-9.94928 l 3.1492,-3.87983 h 50.7193 c 48.8979,0 50.7261,-0.11135 50.7261,-3.07312 0,-2.96559 -1.8282,-3.07314 -51.8489,-3.07314 -49.213,0 -51.938,-0.15368 -53.5673,-3.03473 -5.45,-9.63813 -31.8022,-12.40394 -45.4201,-4.7672 m 29.7278,4.04885 c 12.536,4.92471 5.3677,16.04561 -10.3451,16.04561 -18.0613,0 -22.8128,-11.52427 -6.8466,-16.6026 7.3668,-2.34327 10.03,-2.25876 17.1917,0.55699 M -56.61712,818.5516 c 10.673766,5.42408 2.998781,15.89577 -11.652827,15.89577 -9.537248,0 -16.205794,-3.63013 -16.205794,-8.82372 0,-8.33589 16.910982,-12.63058 27.858621,-7.07205 m 2021.49222,17.66282 c 16.5206,4.87861 12.0359,16.67177 -6.3402,16.67177 -15.7127,0 -22.8811,-11.1209 -10.3451,-16.0456 7.278,-2.86186 8.9143,-2.92333 16.6853,-0.62617 m 146.5708,4.15643 c -8.0174,4.02198 -8.7158,5.11677 -8.346,13.04545 l 0.404,8.65856 -64.6042,36.23224 c -63.0157,35.34105 -64.7888,36.19 -72.0667,34.49977 -26.5168,-6.16163 -48.4189,14.58203 -27.6805,26.22152 18.924,10.61383 48.1792,2.74661 46.3303,-12.46157 l -0.9308,-7.68667 64.3574,-36.10547 64.3576,-36.10549 11.6461,0.9642 c 28.4542,2.36247 45.6184,-15.89195 25.5376,-27.15882 -11.0983,-6.2231 -26.7086,-6.26536 -39.0048,-0.10395 m -2398.27821,-0.70677 c -18.53362,5.76214 -17.73941,24.57355 1.19815,28.61473 l 6.71646,1.43284 v 34.91848 34.9185 l -61.61894,34.69184 c -52.56782,29.59816 -61.61898,35.36416 -61.61898,39.24776 0,4.1488 5.97706,1.2024 67.09621,-33.06692 l 67.09618,-37.62284 v -36.54337 -36.54344 l 6.57269,-1.40211 c 9.76318,-2.08204 15.33628,-7.58679 15.33628,-15.15055 0,-12.11968 -21.89528,-19.36842 -40.77805,-13.4949 m 2428.80011,5.53933 c 10.6052,5.95035 3.7586,15.36566 -11.1805,15.36566 -9.3729,0 -16.2058,-3.61093 -16.2058,-8.56251 0,-4.5175 8.9143,-9.87628 16.4318,-9.87628 3.0125,0 7.942,1.3829 10.9545,3.07313 m -2402.31765,1.84388 c 6.71645,3.76843 3.97099,11.70864 -4.95692,14.29777 -16.75348,4.86321 -33.40432,-6.38446 -20.31371,-13.72541 5.08015,-2.85418 20.58073,-3.20372 25.27063,-0.57236 m 2126.75075,23.4135 c -22.5526,5.50473 -23.2028,25.34183 -0.9655,29.30231 5.2377,0.93348 5.4088,2.53151 5.4088,50.2304 v 49.27009 l -43.7561,24.38142 -43.7565,24.3854 h -86.4375 -86.4376 l -10.4206,-6.1463 c -15.1444,-8.9314 -38.1626,-7.8096 -46.3374,2.2625 -15.6513,19.2724 32.8362,33.4014 50.1579,14.6128 l 4.2242,-4.5828 h 91.0865 91.0934 l 47.1386,-26.6057 47.1385,-26.6056 v -50.11903 c 0,-48.86284 0.1369,-50.14204 5.5046,-51.09854 24.3121,-4.32925 10.7286,-33.84287 -14.4599,-31.43431 -0.3492,0.0307 -4.4779,0.99876 -9.1814,2.14736 m 21.3477,8.01705 c 10.3861,5.27809 3.0741,15.89576 -10.9477,15.89576 -15.172,0 -22.1349,-9.36155 -11.4337,-15.36567 6.6617,-3.73769 15.6443,-3.94898 22.3814,-0.53009 m 282.4474,48.45562 -90.8948,50.99865 -12.6249,-0.36875 c -32.6581,-0.945 -43.2771,22.91785 -13.3234,29.94005 24.1545,5.6623 46.9399,-7.83268 36.6565,-21.70406 -1.9444,-2.62369 10.5984,-10.32191 85.7598,-52.62742 l 88.033,-49.55429 h 36.307 36.3006 v -3.84143 -3.84142 h -37.6629 -37.6628 l -90.8881,50.99867 m -54.827,-38.7599 c -10.4616,3.58019 -14.7339,10.67914 -11.0368,18.34277 l 2.5196,5.22815 -65.2818,36.67402 -65.2888,36.67019 -11.276,-0.94117 c -22.7241,-1.89382 -39.5186,7.98247 -33.6989,19.81409 9.4619,19.2264 57.4149,13.9367 53.7591,-5.93121 l -1.4515,-7.91717 66.5554,-37.31935 c 61.4546,-34.45752 67.1304,-37.24255 73.977,-36.27835 30.9601,4.35617 48.8501,-20.84737 20.6148,-29.0411 -10.7148,-3.10773 -18.821,-2.91564 -29.3921,0.69913 m -145.4619,1.06022 c 6.2304,3.16533 6.4562,9.37307 0.4724,13.08772 -9.4069,5.82742 -28.3311,1.7248 -28.3311,-6.14243 0,-8.22064 17.0002,-12.45771 27.8587,-6.94529 m 174.1146,6.28456 c 7.3532,5.40103 -1.5131,15.75749 -13.4878,15.75749 -7.1752,0 -15.9524,-5.49705 -15.9524,-9.98768 0,-8.79301 19.992,-12.71124 29.4402,-5.76981 m -2480.50519,15.75749 c 6.57952,3.69161 6.94923,7.3525 1.21183,11.95066 -8.54449,6.8454 -28.59803,3.05394 -28.59803,-5.40871 0,-8.62785 16.60289,-12.59215 27.3862,-6.54195 m 2549.77859,42.18645 -44.9953,25.28422 -11.338,-0.87202 c -34.8285,-2.68128 -49.3774,24.09343 -16.4114,30.19753 21.786,4.0333 38.2382,-3.5726 36.6017,-16.91389 l -0.9516,-7.78271 44.0026,-24.52746 44.0099,-24.52361 h 36.0951 c 34.2738,0 36.1017,-0.15366 36.1017,-3.07312 0,-2.93103 -1.8279,-3.07315 -39.0595,-3.07315 h -39.0529 l -45.0023,25.28421 m -243.388,-11.9852 c 10.3861,5.27808 3.0741,15.89576 -10.9475,15.89576 -14.4805,0 -22.6553,-10.38719 -12.6046,-16.02253 5.6073,-3.14998 17.2257,-3.08468 23.5521,0.12677 M 36.550804,973.45675 c -29.2142402,7.3179 -17.136923,29.24475 16.10992,29.24475 h 16.109942 l 47.754674,26.7631 47.76155,26.7593 59.42121,-0.062 c 67.34266,-0.067 67.90409,-0.03 72.10101,5.1398 13.56301,16.7026 64.04264,3.2422 51.4176,-13.7098 -9.59887,-12.8881 -53.82759,-13.1839 -53.82759,-0.3574 0,3.4458 -7.10672,3.8683 -65.29554,3.8683 h -56.63467 l -47.89162,-26.909 -47.898474,-26.90917 0.883211,-8.04777 c 1.43778,-13.09095 -18.82801,-21.08493 -40.011223,-15.77992 m 26.023735,8.33972 c 7.757129,5.71986 -0.39711,15.52699 -12.912609,15.52699 -7.366868,0 -16.452251,-5.33572 -16.342691,-9.60354 0.225923,-9.10416 19.6085,-13.02625 29.2553,-5.92345 m 2013.556861,5.05915 c 7.4285,4.4714 7.045,8.25134 -1.3077,12.93792 -10.9408,6.13847 -25.969,2.42777 -25.969,-6.41135 0,-8.8929 16.7124,-12.88798 27.2767,-6.52657 m 84.3973,-0.96805 c 9.7906,3.84525 8.4283,12.21188 -2.4988,15.38494 -8.0789,2.3432 -9.0035,2.3163 -15.7472,-0.4995 -18.6841,-7.79035 -0.8146,-22.3762 18.246,-14.88544 m -189.9231,7.70588 c 8.8525,4.96309 0.5476,16.02256 -12.0295,16.02256 -14.1518,0 -23.2511,-13.01474 -11.7352,-16.77931 7.1754,-2.34712 18.9036,-1.9745 23.7647,0.75675 m 93.0033,40.50396 c -28.2762,6.7608 -19.4783,30.0667 11.3517,30.0667 11.4611,0 13.83,-0.63 21.7379,-5.7621 l 8.8798,-5.7622 h 61.3041 61.3041 l 54.1082,30.3319 c 49.9388,27.9925 54.1151,29.9786 54.1151,25.7222 0,-3.9376 -7.675,-8.9082 -52.7459,-34.1733 l -52.7456,-29.5637 h -62.6667 -62.6733 l -8.5102,-5.447 c -9.0853,-5.8158 -22.6073,-8.0055 -33.4592,-5.4125 m -2124.217503,4.7055 c -15.171947,6.6918 -14.172358,18.5042 2.149824,25.4879 l 9.530396,4.0795 v 35.5525 35.5484 l 96.912924,54.3599 96.912909,54.3598 -1.40354,5.8505 c -4.79943,20.0905 37.48486,27.6312 52.87592,9.4305 9.5167,-11.2475 -3.86147,-21.0661 -28.6939,-21.0661 h -16.65081 l -94.496109,-53.0039 -94.502916,-53.0038 v -34.0698 -34.0733 l 9.311313,-3.2267 c 10.838088,-3.7608 12.597653,-5.7622 12.597653,-14.3516 0,-12.8495 -26.393455,-19.8871 -44.543664,-11.8738 m 721.838663,-1.2676 c -10.88602,1.6364 -20.02616,7.9594 -20.02616,13.852 0,16.2837 31.19971,22.8142 50.02775,10.4718 l 9.37977,-6.1463 h 62.0366 c 36.10186,0 62.04343,0.5916 62.04343,1.4176 0,0.7796 3.19047,3.5456 7.09303,6.1462 19.27304,12.8534 60.18117,-1.7363 46.49492,-16.5834 -11.18726,-12.135 -32.44581,-13.6754 -48.09016,-3.4842 l -9.75635,6.3577 H 759.64237 698.8587 l -3.95045,-4.2795 c -6.07974,-6.5995 -20.01247,-9.8072 -33.67819,-7.7519 m 1422.61734,3.6684 c 13.7616,5.4049 2.7524,19.6336 -13.0222,16.8254 -13.9464,-2.4853 -16.2194,-13.4065 -3.6355,-17.5129 6.7713,-2.2089 9.5853,-2.0936 16.6577,0.6875 m -1124.12141,0.9527 c -13.563,2.0245 -21.0874,9.1156 -18.95131,17.8626 l 1.73906,7.1296 -28.05029,15.796 -28.05721,15.7921 H 758.96456 631.5229 l -28.42006,-15.9995 c -27.80383,-15.6498 -28.38578,-16.1263 -26.77001,-21.7155 4.55296,-15.7421 -26.78371,-26.2407 -46.05674,-15.4272 -20.01246,11.2285 -8.4144,26.2292 20.32741,26.2868 l 16.68504,0.029 30.83687,17.2557 30.8437,17.2517 h 130.08446 130.08444 l 31.22028,-17.5668 31.22714,-17.5667 12.54968,0.7528 c 22.67578,1.3677 36.56059,-7.0374 31.78177,-19.2416 -3.23162,-8.2476 -19.72498,-13.0992 -36.19089,-10.6408 m -991.750244,2.2704 c 10.694309,5.4316 2.991943,15.8958 -11.693911,15.8958 -14.514678,0 -21.717251,-11.4745 -10.078114,-16.0458 7.859838,-3.0884 15.49374,-3.0384 21.772025,0.15 M 1080.2048,1044.191 c -8.0448,3.1615 -12.3855,11.1171 -9.3318,17.0943 2.403,4.6904 1.4103,5.3472 -59.5856,39.5475 l -62.02983,34.7801 H 758.8961 568.53462 l -28.7076,-16.1648 -28.70757,-16.1646 0.8969,-8.0669 c 1.80064,-16.1764 -27.52314,-23.9359 -47.68624,-12.6229 -19.21829,10.7829 -0.94483,28.4072 27.07814,26.1254 l 11.49533,-0.9373 30.0769,16.9906 30.07689,16.9867 h 195.8798 195.88669 l 62.81714,-35.2718 62.8171,-35.268 11.3241,0.8718 c 21.6899,1.6673 36.9097,-6.9067 33.0006,-18.5924 -3.3755,-10.0914 -28.9816,-15.4386 -44.578,-9.3077 m 134.1923,0 c -14.8159,5.8237 -13.6039,21.6156 2.0061,26.1447 15.1036,4.3793 35.9924,1.2024 41.0381,-6.2461 l 2.5538,-3.7684 h 86.3351 c 69.8691,0 86.3349,0.3879 86.3349,2.0358 0,10.6947 38.149,13.6717 50.3154,3.9259 20.9093,-16.7524 -19.7935,-33.2089 -45.1533,-18.2543 l -10.4203,6.1462 h -80.6728 c -82.1175,0 -89.3407,-0.315 -89.3407,-3.8952 0,-6.7955 -30.2892,-11.0824 -42.9963,-6.0886 m 373.7601,0.085 c 8.0035,3.1461 8.4964,12.1428 0.7873,14.4551 -19.6221,5.8929 -37.4849,-6.1001 -20.348,-13.6638 8.6404,-3.8146 11.5707,-3.9337 19.5607,-0.7913 m -1256.41738,2.2168 c 6.66169,3.7378 7.03824,8.7777 0.9448,12.5577 -6.58638,4.0834 -18.63628,3.5801 -25.12684,-1.0526 -12.54287,-8.9468 9.79742,-19.5758 24.18204,-11.5051 m 351.49505,1.9209 5.59364,4.2254 -5.59364,4.2256 c -9.99596,7.5445 -31.07649,4.6789 -31.07649,-4.2256 0,-8.9045 21.08053,-11.7701 31.07649,-4.2254 m 179.33854,-2.5426 c 8.85943,3.4843 7.27104,11.2055 -2.96456,14.4053 -15.67176,4.894 -31.67899,-6.4534 -19.6359,-13.9174 5.77164,-3.5802 14.26135,-3.7646 22.60046,-0.4879 m 120.0885,6.2155 c 8.48975,7.2679 -4.04631,15.9534 -19.82758,13.7292 -11.72129,-1.6519 -12.91943,-14.048 -1.66372,-17.1866 8.35964,-2.3278 16.2126,-1.0679 21.4913,3.4574 m -419.04996,-0.038 c 5.18285,4.4405 1.93073,10.0146 -7.84614,13.4412 -6.96297,2.4429 -19.39629,-0.5802 -22.4567,-5.4588 -6.38781,-10.1873 19.70437,-17.0598 30.30284,-7.9824 m 547.10795,-0.6031 c 5.7372,4.5983 5.3675,8.259 -1.212,11.9505 -15.5758,8.7393 -37.827,-3.7336 -23.9765,-13.4449 4.6693,-3.2767 20.4026,-2.3432 25.1885,1.4944 m 134.1924,0 c 11.5432,9.2424 -10.1946,20.5209 -24.2917,12.6075 -5.0869,-2.8505 -5.7102,-11.5472 -1.0202,-14.1786 5.6349,-3.1615 20.5604,-2.2357 25.3119,1.5711 m 226.5661,-0.8721 c 10.3519,5.2551 2.7042,15.8959 -11.4271,15.8959 -8.5993,0 -16.4317,-4.6828 -16.4317,-9.8264 0,-7.4216 17.623,-11.263 27.8588,-6.0695 m 168.1921,28.0502 c -18.6156,10.898 -1.787,29.8861 24.0725,27.1662 9.1265,-0.9602 18.6364,-5.5545 21.7515,-10.5098 1.5885,-2.524 12.6729,-2.689 180.4614,-2.689 h 178.7702 l 145.8454,81.8182 c 131.4674,73.7515 145.8383,81.3612 145.8383,77.2049 0,-4.0373 -17.719,-14.5513 -143.0998,-84.8877 l -143.1065,-80.2817 h -181.3514 -181.3516 l -4.2106,-4.5637 c -8.4416,-9.1654 -30.7,-10.8252 -43.6194,-3.2574 m 31.4188,4.8401 c 11.7352,6.584 -0.3833,17.1174 -16.9998,14.7781 -7.3396,-1.0336 -14.5558,-7.7676 -11.5366,-10.76 7.8052,-7.7404 19.0746,-9.3267 28.5364,-4.0181 m -1172.9783,4.1988 c 5.32662,3.8028 4.06002,8.6698 -3.27265,12.5305 -8.46919,4.4677 -18.97865,3.3228 -24.49699,-2.662 -9.11274,-9.8917 15.48692,-18.6348 27.76964,-9.8685 m -900.3077,6.0924 c 0,4.5559 11.62546,11.5358 130.07077,77.9923 l 130.08446,72.9908 v 30.7158 30.7199 h 6.84655 6.84656 v -31.7375 -31.7382 l -136.91732,-76.9736 c -128.35228,-72.1571 -136.92418,-76.6592 -136.93102,-71.9688 m 550.00393,-2.3163 c -27.87231,12.6536 -3.10833,37.3809 28.24202,28.2037 7.18887,-2.1053 7.69554,-1.8784 49.97981,22.0151 l 42.72249,24.1355 v 25.2574 25.2536 l 80.12518,44.9368 c 69.23232,38.829 81.22746,44.9331 88.29996,44.9331 7.44219,0 0.65726,-4.2218 -74.64109,-46.489 l -82.82958,-46.4926 v -25.361 -25.3611 l -45.02291,-25.2265 c -41.05191,-23.0025 -44.88597,-25.6068 -43.47559,-29.5521 4.4845,-12.5921 -26.16753,-24.074 -43.40029,-16.2529 m 87.49892,2.5315 c -23.2372,11.651 3.46435,33.7659 31.03541,25.6953 7.06565,-2.0667 7.81191,-1.7403 49.9798,21.7346 l 42.80466,23.8361 v 25.5338 25.534 l 80.12517,44.9368 c 69.23233,38.829 81.22749,44.9331 88.3,44.9331 7.4422,0 0.65725,-4.2218 -74.64114,-46.489 l -82.82955,-46.4926 v -25.7414 -25.7412 l -43.81793,-24.4622 -43.81792,-24.4659 v -7.1413 c 0,-14.7778 -27.3999,-21.5619 -47.1385,-11.6701 m 88.00555,0.037 c -22.88802,12.8456 5.63471,34.3229 33.37695,25.1266 l 7.9899,-2.6465 42.41439,23.759 42.40754,23.7554 v 25.941 25.9412 l 80.07043,45.1444 c 72.20371,40.7072 80.94675,45.1443 88.97777,45.1443 8.42123,0 4.39548,-2.5239 -73.22386,-45.9356 l -82.13124,-45.9319 v -25.8031 -25.7987 l -46.55655,-26.2792 c -43.82476,-24.7348 -46.55653,-26.6172 -46.55653,-32.0987 0,-8.3975 -11.85139,-14.8088 -27.38624,-14.8088 -8.92103,0 -13.10428,0.968 -19.38256,4.4906 m -148.53589,4.9976 c 10.83123,5.7085 4.78572,15.0969 -9.72213,15.0969 -16.45225,0 -23.95606,-8.4204 -12.9879,-14.5706 8.4555,-4.748 14.44623,-4.8862 22.71003,-0.5263 m 91.23711,-0.2689 c 14.98025,8.405 -6.65484,20.8052 -22.38136,12.8226 -6.99034,-3.5532 -6.43577,-10.5522 1.08175,-13.5024 8.19531,-3.2192 14.72008,-3.0117 21.29961,0.6798 m 87.0265,-0.6798 c 7.22997,2.8387 8.16795,10.0452 1.78011,13.6294 -9.96173,5.5929 -28.55696,1.0641 -28.55696,-6.9532 0,-4.4406 8.38702,-9.0695 16.43169,-9.0695 2.34155,0 6.9972,1.0756 10.34516,2.3933 m 1841.61258,1.3753 c -23.0523,10.8825 -3.8547,32.3368 24.5382,27.4237 l 9.0442,-1.5634 54.0878,30.1169 c 50.0002,27.8426 54.0876,29.7671 54.0876,25.5029 0,-3.9298 -7.2573,-8.6776 -49.0556,-32.1026 l -49.0556,-27.4893 1.4585,-7.921 c 2.7661,-15.043 -24.764,-23.5672 -45.1051,-13.9672 m -834.9642,5.3395 c -27.9611,9.5651 -8.0584,33.2858 23.4767,27.9845 7.182,-1.2059 12.5908,-3.4071 15.747,-6.4036 l 4.8065,-4.5672 h 41.2847 41.2777 l 134.7745,75.6679 134.7674,75.6723 v 16.522 c 0,15.4999 0.3424,16.5258 5.4773,16.5258 5.169,0 5.4774,-1.0259 5.4774,-18.0548 v -18.0547 l -138.9508,-77.9806 -138.944,-77.9808 h -42.7089 -42.7087 l -3.8819,-4.0796 c -7.2711,-7.6251 -25.8185,-10.0684 -39.8949,-5.2512 m 863.576,0.3802 c 7.4215,3.9107 7.9626,6.9645 2.0746,11.6818 -5.6077,4.4904 -21.6419,4.7672 -25.7638,0.4417 -10.1739,-10.6673 8.4077,-20.1789 23.6892,-12.1235 m -835.3545,7.1334 c 5.1691,3.8144 4.416,9.085 -1.8006,12.5731 -8.8321,4.9554 -19.7523,3.7223 -25.88,-2.9233 -9.0513,-9.8187 15.7334,-18.4657 27.6806,-9.6498 m 348.4209,14.8817 c -21.5323,6.565 -18.034,24.5968 5.5455,28.561 12.7965,2.1511 28.8516,-1.1871 33.5482,-6.9722 l 3.1837,-3.9221 h 133.0558 133.0558 l 89.7036,50.315 89.7035,50.3111 v 30.3586 c 0,29.3291 0.1852,30.355 5.4773,30.355 5.3061,0 5.4772,-1.0259 5.4772,-32.3256 v -32.3294 l -93.2568,-52.1818 -93.2637,-52.1856 H 1913.334 c -134.3292,0 -135.2467,-0.022 -137.0337,-3.1808 -4.1558,-7.3525 -25.9895,-11.0672 -39.9701,-6.8032 m -654.2083,4.8632 c -32.3228,7.0454 -22.3542,32.8097 11.9335,30.8236 l 14.3569,-0.8334 58.5245,32.8862 58.5313,32.8826 -0.6094,8.5011 c -1.3967,19.3299 38.1012,25.1383 52.7937,7.7634 9.4208,-11.1401 -8.1337,-23.4865 -30.9808,-21.7847 l -12.5906,0.9373 -58.538,-32.8708 c -56.2443,-31.5804 -58.4766,-33.067 -57.1893,-37.984 3.4028,-13.011 -17.0752,-24.5007 -36.2318,-20.3213 m 679.1777,2.0474 c 10.3108,5.7856 3.1081,16.9024 -10.9545,16.9024 -7.5927,0 -16.4317,-5.3742 -16.4317,-9.9877 0,-4.6136 8.839,-9.9875 16.4317,-9.9875 3.0125,0 7.9418,1.3827 10.9545,3.0728 m -1690.344886,5.4704 c -27.071264,8.2399 -12.898902,31.2422 18.143347,29.4445 l 14.480459,-0.8374 94.90689,53.265 94.91371,53.269 v 15.7419 c 0,14.7165 0.35603,15.7424 5.47725,15.7424 3.01249,0 5.52518,-0.5186 5.57994,-1.1525 0.0686,-0.6339 0.2054,-8.3205 0.34233,-17.0829 l 0.25332,-15.9304 -96.88553,-54.3828 -96.88554,-54.3791 0.93798,-7.6828 c 1.67056,-13.6641 -20.601278,-22.3071 -41.264156,-16.0149 m 1031.508186,1.5559 c 9.1948,5.1552 0.9722,16.0224 -12.1254,16.0224 -7.2436,0 -16.4316,-5.3012 -16.4316,-9.4843 0,-7.6446 18.8827,-11.9701 28.557,-6.5381 m -1504.67329,4.5174 c 0,3.9989 11.24889,10.9174 84.89723,52.224 l 84.89721,47.6145 v 30.3586 c 0,29.3291 0.18488,30.355 5.47725,30.355 5.29924,0 5.47727,-1.0259 5.47727,-31.8915 v -31.8953 l -90.37448,-50.6874 c -82.17231,-46.0894 -90.37448,-50.2727 -90.37448,-46.0779 m 499.579099,2.1511 c 12.043071,7.4639 -3.964169,18.8115 -19.635917,13.9174 -9.085361,-2.8425 -11.61859,-10.5023 -4.744661,-14.3591 6.024972,-3.3805 18.58839,-3.1538 24.380578,0.4417 m 1264.660491,7.3065 c -26.3249,7.2795 -16.6575,29.7056 12.7963,29.7056 11.5022,0 23.5178,-4.2217 26.3661,-9.2577 1.6091,-2.8466 4.3065,-3.0349 43.3454,-3.0349 h 41.634 l 89.6351,50.3957 89.6417,50.3993 v 16.4415 c 0,15.4191 0.3425,16.445 5.4773,16.445 5.1692,0 5.4773,-1.0259 5.4773,-18.0624 v -18.0624 l -92.4422,-51.8512 -92.4423,-51.8517 h -44.0505 -44.0509 l -3.1219,-3.8453 c -6.7026,-8.2591 -23.4699,-11.5126 -38.2654,-7.4215 m 25.2912,8.5355 c 5.7374,4.5982 5.3677,8.259 -1.2117,11.9508 -15.1788,8.5163 -37.2658,-3.6225 -22.8539,-12.5578 6.3331,-3.9219 18.8075,-3.6109 24.0656,0.607 m -1477.807348,0.7531 c -28.022932,9.7532 -7.51066,33.351 24.517493,28.1997 7.784535,-1.2523 9.82481,-0.3419 50.917796,22.7489 l 42.804643,24.0511 v 33.4051 c 0,32.3752 0.171154,33.4011 5.477231,33.4011 5.319774,0 5.477253,-1.0259 5.477253,-34.9761 v -34.9723 l -43.6330762,-24.4468 -43.6330568,-24.4469 1.554159,-7.3639 c 2.875554,-13.6217 -22.751085,-22.818 -43.482442,-15.5999 m 28.481657,7.0951 c 8.749892,7.721 -4.696734,18.6461 -18.58154,15.0965 -13.138534,-3.361 -14.179211,-12.9416 -1.855425,-17.0633 5.477251,-1.8326 17.43132,-0.684 20.436965,1.9668 m 774.365381,14.1248 -31.4462,17.7011 -11.27628,-0.9449 c -36.88235,-3.0885 -49.24037,26.6019 -12.70719,30.52 20.7382,2.2242 40.99031,-9.1041 34.23276,-19.1453 l -3.4096,-5.0632 29.39912,-16.5449 29.39221,-16.545 H 872.99386 999.4428 l 61.66,34.7263 c 59.7362,33.6393 61.6189,34.8877 60.1813,39.8662 -4.7515,16.4145 27.8381,26.8131 47.2343,15.0739 18.1295,-10.9751 2.9096,-27.7388 -23.8669,-26.2948 l -13.036,0.7032 -64.2482,-35.8787 -64.2479,-35.879 H 873.46628 743.81315 l -31.45306,17.7051 m 1293.21071,-10.8061 c -9.058,4.2756 -12.2143,10.2681 -8.3868,15.919 2.3481,3.4688 -1.041,5.7968 -42.7227,29.3292 l -45.2762,25.5644 v 30.2899 c 0,29.2637 0.1846,30.2896 5.4773,30.2896 6.2987,0 6.0385,1.5133 5.8127,-33.7468 l -0.1576,-23.7592 42.702,-24.128 42.702,-24.1281 14.5625,0.845 c 23.6001,1.3638 38.4775,-10.3523 29.6114,-23.3171 -4.9637,-7.2489 -31.6311,-9.1504 -44.3246,-3.1579 m -181.7621,1.8787 c -18.8146,6.5495 -16.6784,25.3264 3.2863,28.8797 5.2374,0.9333 5.4087,2.5315 5.4087,50.799 0,48.8088 0.109,49.8347 5.4773,49.8347 5.3609,0 5.4771,-1.0295 5.4977,-49.5543 v -49.5542 l 8.3117,-2.6547 c 13.0632,-4.1716 17.9859,-12.423 11.9131,-19.9753 -7.7299,-9.6189 -24.9626,-12.9763 -39.9087,-7.7749 m 211.8254,2.9846 c 6.2305,3.1654 6.4563,9.3733 0.4725,13.0879 -9.4071,5.8274 -28.331,1.7247 -28.331,-6.1424 0,-8.2209 17,-12.4577 27.8585,-6.9455 m -185.5278,4.4831 c 5.1624,2.8925 5.6759,10.3986 0.8696,12.6381 -16.4728,7.6675 -39.08,-3.4496 -24.894,-12.2463 5.5593,-3.4458 18.2185,-3.6531 24.0244,-0.3918 m -1339.00034,8.9773 c -21.47078,12.0468 0.5135,32.7559 28.44742,26.7978 11.76237,-2.5084 139.99142,70.5629 139.99142,79.7747 0,5.47 0.86264,6.4959 5.47723,6.4959 4.7789,0 5.47723,-1.0259 5.47723,-8.0557 v -8.0551 l -66.41152,-37.285 -66.41154,-37.2885 v -9.3386 c 0,-15.4387 -28.21463,-23.3444 -46.57024,-13.0455 m -913.30245,3.2421 c 0,3.8876 6.20982,8.0901 39.70999,26.8515 l 39.71001,22.2419 v 30.3664 c 0,29.3406 0.18485,30.3665 5.47723,30.3665 5.29924,0 5.47725,-1.0259 5.47725,-31.9031 v -31.899 l -45.18724,-25.3192 c -42.01727,-23.5399 -45.18724,-24.996 -45.18724,-20.7052 m 948.60327,4.6404 c 2.79339,4.0912 1.98548,6.0927 -3.88885,9.6305 -11.23518,6.7647 -27.27664,2.8311 -27.27664,-6.6879 0,-9.5996 24.99674,-11.9584 31.16549,-2.9426 m 239.3417,1.5599 c -26.74947,8.1435 -14.65846,29.1023 16.78772,29.1023 h 16.64398 l 66.45947,37.2617 c 57.08658,32.0107 67.60279,37.2618 74.62738,37.2618 7.46272,0 1.86913,-3.5418 -63.69343,-40.3463 -69.84168,-39.2057 -71.79978,-40.4733 -69.55412,-44.9446 6.88078,-13.6524 -18.95125,-25.1306 -41.271,-18.3349 m 111.4002,6.2765 c -19.36886,11.7279 4.86103,33.8815 29.09103,26.6059 5.57996,-1.6749 10.619,0.7758 70.70428,34.4691 55.52561,31.1307 65.85021,36.2743 72.86771,36.2743 7.4767,0 2.3964,-3.2535 -59.3527,-38.03 l -67.53429,-38.0299 1.47888,-7.9979 c 2.80028,-15.1852 -29.24159,-24.1972 -47.25491,-13.2915 m -223.06743,2.0822 c 12.59764,7.0681 -1.12286,19.96 -16.3701,15.3848 -15.91139,-4.7786 -11.89932,-18.4578 5.41561,-18.4578 3.01248,0 7.94201,1.3828 10.95449,3.073 m 138.10175,-0.657 c 5.92912,3.3267 5.39509,9.2658 -1.17075,12.9495 -14.15866,7.944 -34.26698,-2.2087 -24.55174,-12.3924 3.53283,-3.7029 19.50583,-4.0488 25.72249,-0.5571 m 117.06229,3.2 c 6.99032,3.5533 6.43576,10.5525 -1.0817,13.5027 -12.47445,4.9053 -26.77682,1.4711 -26.77682,-6.4305 0,-8.336 16.91087,-12.6307 27.85852,-7.0722 m 1140.40961,5.2591 c -12.6868,8.4548 -5.1077,26.0024 11.2213,26.0024 2.8483,0 3.5943,6.3843 3.5943,30.7314 0,29.7056 0.185,30.7312 5.4775,30.7312 5.2922,0 5.477,-1.0256 5.477,-30.7312 0,-24.3471 0.7464,-30.7314 3.5946,-30.7314 8.2364,0 19.5947,-9.1467 19.2934,-15.5346 -0.6639,-14.2441 -32.6715,-21.1317 -48.6581,-10.4678 m -724.8239,2.8346 c -14.3913,8.0749 -6.5179,26.2411 11.3789,26.2411 1.4515,0 2.5263,12.3731 2.5263,29.1946 0,28.1691 0.192,29.1947 5.4774,29.1947 5.2787,0 5.4772,-1.0256 5.4772,-28 v -28.0001 l 11.3309,-5.4742 c 10.0783,-4.8709 11.3243,-6.219 11.3243,-12.2347 0,-13.9752 -29.8371,-20.8358 -47.515,-10.9214 m 756.5439,1.1256 c 10.1942,5.1782 3.1287,15.8959 -10.4821,15.8959 -3.5329,0 -8.8871,-1.383 -11.8994,-3.073 -14.672,-8.2323 6.9767,-20.6401 22.3815,-12.8229 m -725.7346,3.0733 c 10.6944,5.4317 2.992,15.8958 -11.6938,15.8958 -7.9144,0 -16.1647,-4.7059 -16.1647,-9.2196 0,-7.7516 17.4861,-11.9427 27.8585,-6.6762 m -111.5849,6.0194 c 9.1948,5.1554 0.9722,16.0228 -12.1254,16.0228 -7.2436,0 -16.4314,-5.3013 -16.4314,-9.4846 0,-7.6445 18.8825,-11.97 28.5568,-6.5382 m 176.511,6.5228 c -13.5836,6.8071 -12.5224,15.9611 2.6905,23.3174 l 11.331,5.474 v 19.5491 c 0,18.5232 0.2878,19.5488 5.4773,19.5488 5.1898,0 5.4773,-1.0256 5.4773,-19.7179 v -19.7179 l 10.9545,-4.9401 c 10.0712,-4.5406 10.9544,-5.5395 10.9544,-12.4116 0,-14.2056 -27.6394,-20.7514 -46.885,-11.1018 m 33.1099,6.8108 c 3.7586,3.7954 3.7586,4.6558 0,8.4512 -8.3667,8.428 -30.0428,4.9438 -30.0428,-4.8325 0,-8.843 22.1964,-11.5204 30.0428,-3.6187 m -315.4685,2.009 c 12.1866,4.7866 4.7379,16.0456 -10.6122,16.0456 -14.138,0 -20.8546,-9.6611 -10.6874,-15.3654 6.5794,-3.6918 13.1043,-3.8992 21.2996,-0.6802 m -977.07821,3.7531 c 10.57794,5.935 5.18971,15.3658 -8.78411,15.3658 -16.80143,0 -24.07246,-8.4205 -13.01529,-15.0778 6.94925,-4.1831 14.67216,-4.2869 21.7994,-0.288"
     stroke="none"
     fill="#101010"
     fill-rule="evenodd"
     style="display:inline;fill:#ffe2e2;fill-opacity:1;stroke-width:5.12839" /><g
     inkscape:groupmode="layer"
     id="layer3"
     inkscape:label="logo"
     style="fill:#fff9f9;fill-opacity:0.10114966"><path
       id="path55"
       d="m 1785.9298,990.66106 -8.4495,19.54214 h 4.6349 l 7.6295,-17.68606 c 0.2492,-0.52094 0.6416,-0.74898 1.2122,-0.74898 v 0 c 0.5707,0 0.9619,0.22804 1.1764,0.74898 v 0 l 7.309,17.68606 h 4.6703 l -8.1288,-19.54214 c -0.8557,-2.05205 -2.4959,-2.83347 -4.9909,-2.83347 v 0 c -2.5322,0 -4.1723,0.78142 -5.0631,2.83347 m -87.6184,0 -8.4498,19.54214 h 4.6353 l 7.6295,-17.68606 c 0.2496,-0.52094 0.6416,-0.74898 1.2123,-0.74898 v 0 c 0.5702,0 0.9625,0.22804 1.1763,0.74898 v 0 l 7.3089,17.68606 h 4.6708 l -8.1289,-19.54214 c -0.856,-2.05205 -2.4962,-2.83347 -4.9917,-2.83347 v 0 c -2.5309,0 -4.1718,0.78142 -5.0627,2.83347 m -83.2712,1.95407 v 17.58807 h 4.2069 v -17.3928 c 0,-0.78177 0.4989,-1.26993 1.4611,-1.26993 v 0 c 0.7492,0 1.1771,0.29289 1.4981,0.94425 v 0 l 7.0235,14.03798 c 0.998,2.5082 2.5313,4.071 5.8825,4.071 v 0 c 3.7085,0 5.5265,-1.9213 5.5265,-4.8203 v 0 -17.55564 h -4.2429 v 17.39274 c 0,0.7494 -0.5351,1.2376 -1.4259,1.2376 v 0 c -0.7848,0 -1.2482,-0.3906 -1.5333,-0.9115 v 0 l -7.0234,-14.03803 c -0.9985,-2.50815 -2.4959,-4.07098 -5.8471,-4.07098 v 0 c -3.7436,0 -5.526,1.92129 -5.526,4.78754 m 215.7319,-4.39737 v 3.84329 h 7.0234 v 18.14215 h 4.2425 v -18.14215 h 7.0234 v -3.84329 z m -23.1698,0 v 3.84329 h 13.1907 c 2.3176,0 3.3524,1.33585 3.3524,2.89904 v 0 c 0,1.56354 -0.9634,3.06187 -3.3524,3.06187 v 0 h -9.3762 c -2.6386,0 -3.7798,1.00945 -3.7798,3.48444 v 0 8.6968 h 4.2073 v -7.9478 c 0,-0.3902 0.2141,-0.553 0.6065,-0.553 v 0 h 6.275 l 5.4905,8.5008 h 4.6708 l -5.5979,-8.7944 c 3.6726,-0.9439 5.0978,-3.87536 5.0978,-6.61119 v 0 c 0,-3.51797 -2.3172,-6.57985 -7.736,-6.57985 v 0 z m -37.4617,0 -3.6726,6.57985 c -1.3546,2.4098 -2.0325,2.73584 -6.1681,2.73584 v 0 h -2.3168 v -9.31569 h -4.2074 v 21.98544 h 4.2074 v -9.1853 h 2.3168 c 4.5284,0 5.3845,0.3261 6.7028,2.671 v 0 l 3.6726,6.5143 h 4.7055 l -3.8856,-6.9048 c -1.4264,-2.5406 -2.5309,-3.68047 -4.778,-4.2342 v 0 c 1.9619,-0.78177 3.102,-2.05206 4.1715,-4.00648 v 0 l 3.7795,-6.83996 z m -50.157,0 v 3.84329 h 12.5147 c 2.2814,0 3.3146,1.33585 3.3146,2.93181 v 0 c 0,1.53077 -0.9622,3.0291 -3.3508,3.0291 v 0 h -8.6636 c -2.6386,0 -3.7798,1.00945 -3.7798,3.48444 v 0 8.6968 h 4.2073 v -7.9478 c 0,-0.3902 0.2142,-0.553 0.6065,-0.553 v 0 h 7.4872 c 5.633,0 7.7364,-3.58281 7.7364,-6.90479 v 0 c 0,-3.51797 -2.3176,-6.57985 -7.7364,-6.57985 v 0 z m -32.6853,0 -6.8097,9.41331 -6.7383,-9.41331 h -5.0986 l 9.6976,12.50724 v 9.4782 h 4.2424 v -9.4782 l 9.6983,-12.50724 z m -33.7235,0 c -5.6688,0 -8.0578,2.47573 -8.0578,5.99333 v 0 c 0,2.41017 1.1408,4.10376 3.3871,4.95074 v 0 c -2.21,0.84697 -3.4585,2.54057 -3.4585,5.04877 v 0 c 0,3.4196 2.3176,5.9926 8.0219,5.9926 v 0 h 12.1934 v -3.8433 h -12.1934 c -2.46,0 -3.6363,-1.0419 -3.6363,-2.7686 v 0 c 0,-1.7913 1.2477,-2.6703 3.6718,-2.6703 v 0 h 11.9442 v -3.48555 h -11.8369 c -2.4245,0 -3.6718,-0.81419 -3.6718,-2.60542 v 0 c 0,-1.69396 1.105,-2.76897 3.6363,-2.76897 v 0 h 12.0506 v -3.8433 z m -56.0357,0 c -5.6692,0 -8.0582,2.47573 -8.0582,5.99333 v 0 c 0,2.41017 1.1409,4.10376 3.3871,4.95074 v 0 c -2.21,0.84697 -3.4581,2.54057 -3.4581,5.04877 v 0 c 0,3.4196 2.3172,5.9926 8.0216,5.9926 v 0 h 12.1937 v -3.8433 h -12.1937 c -2.4597,0 -3.6364,-1.0419 -3.6364,-2.7686 v 0 c 0,-1.7913 1.2486,-2.6703 3.6723,-2.6703 v 0 h 11.9437 v -3.48555 h -11.8369 c -2.4245,0 -3.6718,-0.81419 -3.6718,-2.60542 v 0 c 0,-1.69396 1.105,-2.76897 3.6367,-2.76897 v 0 h 12.0506 v -3.8433 z m -31.4422,0 c -1.3546,0 -1.9962,0.58651 -1.9962,1.79123 v 0 18.40261 c 0,1.2054 0.6416,1.7916 1.9962,1.7916 v 0 h 8.4853 c 7.0597,0 10.8392,-3.5829 10.8392,-10.97652 v 0 c 0,-7.4261 -3.8154,-11.00892 -10.8392,-11.00892 v 0 z m 2.2112,17.75124 v -13.51671 c 0,-0.29289 0.1423,-0.39124 0.4633,-0.39124 v 0 h 5.8108 c 4.6711,0 6.6319,2.11726 6.6319,7.13321 v 0 c 0,5.04804 -1.9608,7.16564 -6.6319,7.16564 v 0 h -5.8108 c -0.321,0 -0.4633,-0.098 -0.4633,-0.3909"
       style="fill:#fff9f9;fill-opacity:0.18997523;stroke:none;stroke-width:0.372797" /><path
       id="path61"
       d="m 1806.6154,847.35588 c 0,1.9587 1.7384,3.54683 3.8825,3.54683 v 0 c 1.69,0 3.1117,-0.992 3.6464,-2.36812 v 0 h 23.7495 l -60.9724,58.93493 66.3897,68.20892 h -34.9685 c -0.534,-1.37718 -1.9573,-2.36812 -3.6461,-2.36812 v 0 c -2.1437,0 -3.8829,1.58813 -3.8829,3.54755 v 0 c 0,1.95834 1.7392,3.54683 3.8829,3.54683 v 0 c 1.6888,0 3.1121,-0.99236 3.6461,-2.36776 v 0 h 40.7188 l -68.6378,-70.51896 63.4639,-61.34188 h -29.7432 c -0.5347,-1.37576 -1.9564,-2.36741 -3.6464,-2.36741 v 0 c -2.1441,0 -3.8825,1.58813 -3.8825,3.54719 m -88.7431,0 c 0,1.95871 1.7388,3.54683 3.8828,3.54683 v 0 c 1.6893,0 3.1117,-0.992 3.6457,-2.36812 v 0 h 15.843 v 51.70873 l 51.8701,-49.14 c 1.4544,0.60397 3.2236,0.35668 4.3965,-0.75362 v 0 c 1.4876,-1.41068 1.4435,-3.65622 -0.1,-5.01559 v 0 c -1.5437,-1.35973 -4.0013,-1.31875 -5.4901,0.0912 v 0 c -1.1729,1.11066 -1.3788,2.73477 -0.6647,4.04105 v 0 l -47.4302,44.93326 V 846.1761 h -18.4247 c -0.534,-1.37576 -1.9564,-2.36741 -3.6457,-2.36741 v 0 c -2.144,0 -3.8828,1.58813 -3.8828,3.54719 m -13.8398,0.15108 c 0,1.54323 1.0855,2.84274 2.5919,3.3309 v 0 127.84651 h 37.2011 v -35.38775 l 10.8419,-10.42598 22.0231,22.13899 c -0.7547,1.28561 -0.6011,2.91507 0.5348,4.05673 v 0 c 1.4423,1.45023 3.898,1.55713 5.4847,0.2398 v 0 c 1.5863,-1.31767 1.7041,-3.56108 0.2613,-5.01024 v 0 c -1.1354,-1.14273 -2.8964,-1.43669 -4.3704,-0.87299 v 0 l -23.8921,-24.0168 -13.465,12.94873 v 33.97138 h -32.0374 V 850.83786 c 1.5063,-0.48816 2.5914,-1.78767 2.5914,-3.3309 v 0 c 0,-1.95906 -1.7384,-3.54719 -3.8825,-3.54719 v 0 c -2.1444,0 -3.8828,1.58813 -3.8828,3.54719 M 1597.855,847.4022 h -33.7543 v 131.77496 h 53.8378 c 9.1051,0 17.8357,-1.21612 26.0113,-3.6106 v 0 c 1.0414,1.18869 2.8371,1.68183 4.4636,1.085 v 0 c 1.988,-0.7294 2.9534,-2.79428 2.1534,-4.61081 v 0 c -0.7988,-1.81618 -3.059,-2.69665 -5.0467,-1.9669 v 0 c -1.5052,0.55266 -2.4202,1.87176 -2.4307,3.26783 v 0 c -7.8991,2.30612 -16.3407,3.47842 -25.1509,3.47842 v 0 h -51.2577 V 849.75963 h 31.1742 c 0.5336,1.37469 1.9553,2.36598 3.6434,2.36598 v 0 c 2.1425,0 3.8797,-1.58742 3.8797,-3.5447 v 0 c 0,-1.95763 -1.7372,-3.54469 -3.8797,-3.54469 v 0 c -1.6881,0 -3.1098,0.99129 -3.6434,2.36598 m 46.8733,5.00668 c -0.7418,1.83648 0.2859,3.875 2.2962,4.55344 v 0 c 1.5387,0.51916 3.2014,0.0848 4.2323,-0.96884 v 0 c 7.0476,2.87195 13.351,6.65325 18.7468,11.28009 v 0 c 13.3108,11.4137 20.6412,27.47063 20.6412,45.21296 v 0 c 0,15.65928 -5.4909,30.20434 -15.52,41.36613 v 0 c -1.4119,-0.50919 -3.0817,-0.23126 -4.2054,0.82381 v 0 c -1.4942,1.40356 -1.461,3.64803 0.074,5.01274 v 0 c 1.5372,1.36472 3.9928,1.33514 5.4875,-0.0681 v 0 c 1.2298,-1.15555 1.4069,-2.87445 0.5811,-4.20887 v 0 c 10.4437,-11.59186 16.1621,-26.68887 16.1621,-42.92574 v 0 c 0,-18.40011 -7.6194,-35.06707 -21.4557,-46.93187 v 0 c -5.6275,-4.82531 -12.1988,-8.76303 -19.5433,-11.7458 v 0 c 0.08,-1.50474 -0.8853,-2.94821 -2.5137,-3.4973 v 0 c -0.4431,-0.14965 -0.8971,-0.22056 -1.3434,-0.22056 v 0 c -1.5781,0 -3.0613,0.88653 -3.6402,2.31788 m -71.9317,6.27339 c 0,1.95764 1.7376,3.5447 3.8805,3.5447 v 0 c 1.6881,0 3.1098,-0.99129 3.6437,-2.36634 v 0 h 37.6177 c 29.9016,0 52.8799,14.84972 59.6252,38.12716 v 0 c -1.2789,0.74329 -2.0145,2.13757 -1.7434,3.5878 v 0 c 0.3604,1.92984 2.3655,3.22686 4.4776,2.89726 v 0 c 2.112,-0.3296 3.5326,-2.16109 3.1722,-4.09094 v 0 c -0.2976,-1.59025 -1.7162,-2.73512 -3.3867,-2.90901 v 0 c -7.0106,-24.39877 -30.9718,-39.96933 -62.1449,-39.96933 v 0 h -37.6177 c -0.5339,-1.3747 -1.9556,-2.36599 -3.6437,-2.36599 v 0 c -2.1429,0 -3.8805,1.58706 -3.8805,3.54469 m 144.8924,-2.39804 v 111.6442 h 15.0722 v -8.83393 c 1.506,-0.48745 2.5915,-1.78696 2.5915,-3.32983 v 0 c 0,-1.95942 -1.738,-3.54719 -3.8825,-3.54719 v 0 c -2.1444,0 -3.8828,1.58777 -3.8828,3.54719 v 0 c 0,1.54287 1.0854,2.84238 2.5918,3.32983 v 0 6.47579 h -9.9086 V 858.64309 h 9.9086 v 22.44293 c -1.5064,0.48781 -2.5918,1.78767 -2.5918,3.3309 v 0 c 0,1.9587 1.7384,3.54719 3.8828,3.54719 v 0 c 2.1445,0 3.8825,-1.58849 3.8825,-3.54719 v 0 c 0,-1.54323 -1.0855,-2.84309 -2.5915,-3.3309 v 0 -24.80178 z m 76.7245,1.27456 c -1.1713,1.11102 -1.3761,2.73548 -0.6619,4.04141 v 0 l -60.9904,57.86703 v -14.57463 c 1.506,-0.48817 2.5915,-1.78803 2.5915,-3.33091 v 0 c 0,-1.95905 -1.738,-3.54646 -3.8825,-3.54646 v 0 c -2.1444,0 -3.8828,1.58741 -3.8828,3.54646 v 0 c 0,1.54288 1.0854,2.84274 2.5918,3.33091 v 0 20.42472 l 65.4317,-62.08125 c 1.4564,0.6029 3.2249,0.35454 4.3969,-0.75683 v 0 c 1.486,-1.41103 1.44,-3.65693 -0.1045,-5.01559 v 0 c -0.7532,-0.6624 -1.7236,-0.99164 -2.6925,-0.992 v 0 c -1.0184,0 -2.0352,0.36381 -2.7973,1.08714 m 15.3059,0.0427 c -1.1608,1.12063 -1.3499,2.74653 -0.6233,4.04675 v 0 l -43.1816,41.68111 c -1.4611,-0.5915 -3.2276,-0.32853 -4.3887,0.79174 v 0 c -1.4735,1.42244 -1.4057,3.66763 0.1517,5.01452 v 0 c 1.5567,1.34619 4.0143,1.28419 5.4879,-0.13789 v 0 c 1.1615,-1.12099 1.3511,-2.74653 0.6244,-4.04711 v 0 l 43.1816,-41.68146 c 1.4607,0.59185 3.2272,0.3296 4.3883,-0.79139 v 0 c 1.474,-1.42244 1.4057,-3.66798 -0.1509,-5.01417 v 0 c -0.7504,-0.64886 -1.7099,-0.97097 -2.6683,-0.97097 v 0 c -1.0293,0 -2.057,0.372 -2.8211,1.10887 m -213.3883,10.84715 c 0,1.95764 1.7377,3.5447 3.8797,3.5447 v 0 c 1.6881,0 3.1103,-0.99129 3.6438,-2.36598 v 0 h 14.0839 c 9.8711,0 19.0156,2.11192 26.6857,6.13551 v 0 c -0.3331,1.32836 0.1884,2.77076 1.4611,3.63626 v 0 c 1.7188,1.16874 4.1507,0.8427 5.4293,-0.72833 v 0 c 1.2782,-1.5703 0.922,-3.79126 -0.7968,-4.95964 v 0 c -1.4346,-0.9756 -3.3583,-0.8965 -4.7016,0.0659 v 0 c -8.0827,-4.26625 -17.7061,-6.5068 -28.0777,-6.5068 v 0 h -14.0839 c -0.5335,-1.3754 -1.9557,-2.36634 -3.6438,-2.36634 v 0 c -2.142,0 -3.8797,1.58742 -3.8797,3.54469 m -11.2806,0.17781 c 0,1.54181 1.0851,2.84095 2.5898,3.3284 v 0 21.30449 c -1.5047,0.48781 -2.5898,1.78624 -2.5898,3.32875 v 0 c 0,1.95764 1.7376,3.54505 3.88,3.54505 v 0 c 2.1429,0 3.8805,-1.58741 3.8805,-3.54505 v 0 c 0,-1.54251 -1.0851,-2.84095 -2.5902,-3.32875 v 0 -21.30449 c 1.5051,-0.48745 2.5902,-1.7866 2.5902,-3.3284 v 0 c 0,-1.95763 -1.7376,-3.54469 -3.8805,-3.54469 v 0 c -2.1424,0 -3.88,1.58706 -3.88,3.54469 m -12.4825,0.67416 c 0,1.54216 1.0848,2.84095 2.5895,3.3284 v 0 83.11742 h 2.5805 v -83.11741 c 1.5051,-0.48744 2.5902,-1.78624 2.5902,-3.3284 v 0 c 0,-1.95798 -1.7376,-3.54505 -3.88,-3.54505 v 0 c -2.1429,0 -3.8802,1.58707 -3.8802,3.54505 m 37.8471,8.7445 h -11.7172 v 39.94118 c -1.5051,0.48745 -2.5902,1.7866 -2.5902,3.32877 v 0 c 0,1.95763 1.7372,3.54469 3.8804,3.54469 v 0 c 2.1425,0 3.8802,-1.58706 3.8802,-3.54469 v 0 c 0,-1.54217 -1.0848,-2.84131 -2.5907,-3.32877 v 0 -37.58411 h 9.1375 c 0.5339,1.37504 1.9552,2.36598 3.6437,2.36598 v 0 c 2.1429,0 3.8797,-1.58706 3.8797,-3.54469 v 0 c 0,-1.95728 -1.7368,-3.54469 -3.8797,-3.54469 v 0 c -1.6885,0 -3.1098,0.99128 -3.6437,2.36633 m 26.1127,5.34162 c -0.9915,1.73529 -0.2563,3.87678 1.6436,4.78291 v 0 c 1.3905,0.66347 3.0146,0.47355 4.1773,-0.35276 v 0 c 6.7488,4.42266 11.0591,10.55104 12.6513,17.98927 v 0 c -1.309,0.62071 -2.1741,1.89385 -2.0918,3.32697 v 0 c 0.112,1.95479 1.9385,3.45632 4.0783,3.35335 v 0 c 2.1393,-0.10227 3.7833,-1.77092 3.6702,-3.7257 v 0 c -0.095,-1.64941 -1.4131,-2.96389 -3.107,-3.27674 v 0 c -1.7201,-8.05715 -6.5059,-14.8629 -13.8175,-19.64973 v 0 c 0.3951,-1.53859 -0.3655,-3.18373 -1.9689,-3.94911 v 0 c -0.5734,-0.2733 -1.1877,-0.403 -1.7927,-0.403 v 0 c -1.3994,0 -2.7509,0.69305 -3.4428,1.90454 m 21.839,2.35244 c -1.7454,1.13488 -2.1546,3.348 -0.9127,4.94325 v 0 c 0.9108,1.16945 2.4569,1.67471 3.9059,1.41709 v 0 c 3.5341,6.04536 5.3934,13.02178 5.3934,20.38696 v 0 c 0,14.19372 -6.2983,26.57769 -17.4066,34.51689 v 0 c -1.2228,-0.78248 -2.8828,-0.88545 -4.2409,-0.13255 v 0 c -1.8324,1.01517 -2.4167,3.1955 -1.3051,4.86879 v 0 c 1.1112,1.67365 3.4979,2.20741 5.3303,1.19225 v 0 c 1.5278,-0.84626 2.1701,-2.50138 1.7033,-3.99901 v 0 c 11.8041,-8.38459 18.4995,-21.46696 18.4995,-36.44638 v 0 c 0,-7.79275 -1.9826,-15.18287 -5.7531,-21.59132 v 0 c 1.1058,-1.2065 1.2419,-2.97956 0.1978,-4.32183 v 0 c -0.757,-0.97205 -1.9529,-1.49049 -3.1663,-1.49049 v 0 c -0.7782,0 -1.5633,0.21308 -2.2455,0.65635 m 74.4198,49.31067 c -1.4576,-0.5972 -3.2257,-0.34243 -4.3922,0.77286 v 0 c -1.4814,1.41602 -1.4252,3.66156 0.1256,5.01416 v 0 c 1.5503,1.35331 4.008,1.302 5.489,-0.11474 v 0 c 1.1674,-1.11492 1.3643,-2.7394 0.6447,-4.04354 v 0 l 20.1904,-19.30694 50.2939,50.55673 h 19.2792 l -34.7259,-35.67815 c 0.7707,-1.27813 0.6365,-2.9083 -0.486,-4.06172 v 0 c -1.4252,-1.46377 -3.879,-1.59561 -5.4808,-0.29396 v 0 c -1.6031,1.30164 -1.7462,3.54398 -0.3222,5.00739 v 0 c 1.1222,1.15376 2.8788,1.46662 4.3591,0.9161 v 0 l 30.9051,31.7522 h -12.386 l -51.3895,-51.65848 z m -56.9199,-11.46608 c -0.2586,1.45593 0.4949,2.84772 1.7883,3.57925 v 0 c -6.6088,24.14579 -29.6352,39.55529 -59.7165,39.55529 v 0 h -25.1711 v 2.35707 h 25.1711 c 31.3665,0 55.3777,-16.14102 62.242,-41.42456 v 0 c 1.6631,-0.19134 3.0649,-1.34511 3.3458,-2.93395 v 0 c 0.3432,-1.93198 -1.0945,-3.75279 -3.2093,-4.06563 v 0 c -0.2098,-0.031 -0.4185,-0.0459 -0.6244,-0.0459 v 0 c -1.8699,0 -3.5174,1.23822 -3.8259,2.9785 m -90.8162,5.12355 c 0,1.54145 1.0851,2.84095 2.5898,3.32876 v 0 26.59943 h 22.7748 c 0.5339,1.37575 1.9552,2.36597 3.6437,2.36597 v 0 c 2.1429,0 3.8797,-1.58634 3.8797,-3.54398 v 0 c 0,-1.95727 -1.7368,-3.5454 -3.8797,-3.5454 v 0 c -1.6885,0 -3.1098,0.99271 -3.6437,2.36633 v 0 h -20.1943 v -24.24235 c 1.5051,-0.48781 2.5902,-1.78731 2.5902,-3.32876 v 0 c 0,-1.95763 -1.7376,-3.54434 -3.8805,-3.54434 v 0 c -2.1424,0 -3.88,1.58671 -3.88,3.54434 m 63.4019,0.69162 c -0.6946,1.25425 -0.4848,2.70056 0.39,3.74779 v 0 c -6.6485,8.31727 -17.689,13.02998 -30.9011,13.02998 v 0 l -14.0844,-0.0221 c -0.5312,-1.37611 -1.9509,-2.36811 -3.639,-2.37096 v 0 c -2.1425,-0.003 -3.8829,1.58099 -3.8867,3.53791 v 0 c -0.01,1.958 1.7305,3.54791 3.8731,3.55146 v 0 c 1.688,0.002 3.1121,-0.98665 3.6479,-2.36134 v 0 l 14.0863,0.0221 c 14.119,0 25.938,-5.10039 33.0644,-14.09538 v 0 c 1.7103,0.37913 3.5431,-0.33957 4.3731,-1.83506 v 0 c 0.9677,-1.7474 0.2032,-3.87999 -1.7088,-4.76438 v 0 c -0.5617,-0.26011 -1.1603,-0.38304 -1.7497,-0.38304 v 0 c -1.4166,-2.7e-4 -2.7818,0.7105 -3.4651,1.94302"
       style="fill:#fff9f9;fill-opacity:0.18997523;stroke:none;stroke-width:0.372797" /><path
       id="path67"
       d="m 1573.8423,957.47039 -1.928,3.04727 5.8163,-0.01 v 4.68991 l 1.6682,0.88047 1.6678,-0.88047 -0.011,-4.68991 5.8053,-0.01 -1.9276,-3.04763 z m 11.8385,10.31018 -4.4516,-2.34496 -1.6682,0.88047 v 1.7613 l 4.4516,2.33533 -2.8918,4.60083 h 3.845 l 5.5347,-8.79651 -1.928,-3.03765 z m -17.3727,-1.52364 5.5669,8.76659 h 3.8451 l -2.9136,-4.59121 4.4511,-2.35493 -0.01,-1.7613 -1.6679,-0.87049 -4.4405,2.35493 -2.9136,-4.59121 z"
       style="fill:#fff9f9;fill-opacity:0.18997523;stroke:none;stroke-width:0.372797" /><text
       xml:space="preserve"
       id="text11"
       style="font-style:normal;font-variant:normal;font-weight:normal;font-stretch:normal;font-size:142.264px;font-family:FreeSans;-inkscape-font-specification:'FreeSans, Normal';font-variant-ligatures:normal;font-variant-caps:normal;font-variant-numeric:normal;font-variant-east-asian:normal;white-space:pre;shape-inside:url(#rect12);display:none;fill:#ffffff;fill-opacity:1;stroke:none;stroke-width:10;stroke-linecap:round;stroke-linejoin:round;stroke-dasharray:10, 10;stroke-dashoffset:0;stroke-opacity:1"
       transform="matrix(2.1396817,0,0,1.4976342,-777.02044,-144.27397)"><tspan
         x="707.03906"
         y="264.72116"
         id="tspan3"><tspan
           style="font-size:112.47px"
           id="tspan2">1</tspan></tspan></text><text
       xml:space="preserve"
       id="text11-1"
       style="font-style:normal;font-variant:normal;font-weight:normal;font-stretch:normal;font-size:142.264px;font-family:FreeSans;-inkscape-font-specification:'FreeSans, Normal';font-variant-ligatures:normal;font-variant-caps:normal;font-variant-numeric:normal;font-variant-east-asian:normal;white-space:pre;shape-inside:url(#rect12-9);display:none;fill:#ffffff;fill-opacity:1;stroke:none;stroke-width:10;stroke-linecap:round;stroke-linejoin:round;stroke-dasharray:10, 10;stroke-dashoffset:0;stroke-opacity:1"
       transform="matrix(2.1396817,0,0,1.4976342,-413.98821,-146.36181)"><tspan
         x="707.03906"
         y="264.72116"
         id="tspan5"><tspan
           style="font-size:112.47px"
           id="tspan4">3</tspan></tspan></text></g><g
     inkscape:label="top"
     inkscape:groupmode="layer"
     id="layer1"><circle
       style="fill:url(#radialGradient2);stroke-width:74.1633"
       id="path1"
       cx="1230.415"
       cy="573.41498"
       r="60.414997"
       inkscape:label="back"
       inkscape:export-filename="./ball.png"
       inkscape:export-xdpi="96"
       inkscape:export-ydpi="96" /><circle
       style="fill:url(#radialGradient4);stroke-width:59.6362"
       id="path1-5"
       cx="1230.415"
       cy="573.41498"
       r="48.580868"
       inkscape:export-filename="./ball.png"
       inkscape:export-xdpi="96"
       inkscape:export-ydpi="96" /></g><g
     inkscape:groupmode="layer"
     id="layer2"
     inkscape:label="izgi"
     style="display:none"><rect
       style="fill:none;stroke:#fff2e9;stroke-width:41;stroke-linecap:round;stroke-linejoin:round;stroke-dasharray:328, 41;stroke-dashoffset:0;stroke-opacity:1"
       id="rect1"
       width="1863.1215"
       height="1023.1215"
       x="28.43927"
       y="28.43924"
       inkscape:label="kenar" /><path
       style="fill:none;fill-rule:evenodd;stroke:#ffeee1;stroke-width:37.957;stroke-linecap:round;stroke-linejoin:miter;stroke-dasharray:37.957, 37.957;stroke-dashoffset:0;stroke-opacity:0.21651"
       d="m 958.79419,103.49616 2.42059,876.25189"
       id="path2"
       inkscape:connector-type="polyline"
       inkscape:connector-curvature="0" /></g><path
     id="rect3"
     style="fill:#ffefb7;stroke:none;stroke-linecap:round;stroke-linejoin:round;fill-opacity:1"
     d="m 710.56843,351.91162 20.32462,-7.03818 a 10.038333,10.038333 35.449812 0 1 13.32312,9.48569 v 209.84719 a 12.370999,12.370999 145.63248 0 1 -16.85773,11.5287 l -17.59408,-6.84725 A 21.832603,21.832603 55.632481 0 1 695.85004,548.54168 V 372.58433 a 21.877113,21.877113 125.44981 0 1 14.71839,-20.67271 z"
     sodipodi:nodetypes="ccccc"
     inkscape:path-effect="#path-effect3"
     inkscape:original-d="M 695.85004,357.00843 744.21617,340.2598 V 582.2957 L 695.85004,563.4726 Z"
     transform="translate(-588.70186,52.550921)"
     inkscape:export-filename="./left_bat.png"
     inkscape:export-xdpi="96"
     inkscape:export-ydpi="96" /><path
     id="rect3-7"
     style="fill:#ffefb7;fill-opacity:1;stroke:none;stroke-linecap:round;stroke-linejoin:round"
     d="m 710.56843,351.91162 20.32462,-7.03818 a 10.038333,10.038333 35.449812 0 1 13.32312,9.48569 v 209.84719 a 12.370999,12.370999 145.63248 0 1 -16.85773,11.5287 l -17.59408,-6.84725 A 21.832603,21.832603 55.632481 0 1 695.85004,548.54168 V 372.58433 a 21.877113,21.877113 125.44981 0 1 14.71839,-20.67271 z"
     sodipodi:nodetypes="ccccc"
     inkscape:path-effect="#path-effect3-1"
     inkscape:original-d="M 695.85004,357.00843 744.21617,340.2598 V 582.2957 L 695.85004,563.4726 Z"
     transform="matrix(-1,0,0,1,2510.0356,0)"
     inkscape:export-filename="./right_bat.png"
     inkscape:export-xdpi="96"
     inkscape:export-ydpi="96" /></svg>
